<svg xmlns="http://www.w3.org/2000/svg" viewBox="0 0 2124.3467 1413.0018"><svg xmlns="http://www.w3.org/2000/svg" width="733.86247" height="702.19479" viewBox="0 0 733.86247 702.19479" xmlns:xlink="http://www.w3.org/1999/xlink" role="img" artist="Katerina Limpitsouni" source="https://undraw.co/" x="0" y="0"><title>cloud_files</title><path d="M257.07474,533.1599a1.11537,1.11537,0,0,1-.23571-.46222,351.19117,351.19117,0,0,1,478.94006-405.746,1.11976,1.11976,0,1,1-.87626,2.061C612.32539,76.89059,473.23316,98.13255,371.90572,184.44937,271.19684,270.23927,227.9405,403.478,259.01686,532.17137a1.12007,1.12007,0,0,1-1.94212.98853Z" transform="translate(-233.06876 -98.90261)" fill="#e6e6e6" /><path d="M461.79585,773.48566a1.11976,1.11976,0,0,1,1.28506-1.75985C585.19759,822.86767,723.62042,801.34331,824.331,715.552,926.61163,628.42316,970.04606,494.49037,937.6846,366.02043a1.12,1.12,0,0,1,2.17242-.54614,346.59614,346.59614,0,0,1-5.75077,189.35434A353.6721,353.6721,0,0,1,825.78337,717.257a351.07362,351.07362,0,0,1-363.569,56.53446A1.113,1.113,0,0,1,461.79585,773.48566Z" transform="translate(-233.06876 -98.90261)" fill="#e6e6e6" /><path d="M435.91449,793.36365a1.11922,1.11922,0,0,1,.12628-1.57869L965.085,341.11317a1.11987,1.11987,0,1,1,1.45241,1.705L437.49318,793.48994A1.11922,1.11922,0,0,1,435.91449,793.36365Z" transform="translate(-233.06876 -98.90261)" fill="#e6e6e6" /><path d="M233.33628,555.55682a1.11959,1.11959,0,0,1,.12629-1.5787L762.50681,103.30633a1.11988,1.11988,0,0,1,1.45241,1.705L234.915,555.6831A1.11959,1.11959,0,0,1,233.33628,555.55682Z" transform="translate(-233.06876 -98.90261)" fill="#e6e6e6" /><path d="M435.91449,793.36365a1.11922,1.11922,0,0,1,.12628-1.57869L965.085,341.11317a1.11987,1.11987,0,1,1,1.45241,1.705L437.49318,793.48994A1.11922,1.11922,0,0,1,435.91449,793.36365Z" transform="translate(-233.06876 -98.90261)" fill="#e6e6e6" /><path d="M851.60079,284.65378H646.84415v-1.07216a3.14805,3.14805,0,0,0-3.14805-3.14805H557.14758a3.14805,3.14805,0,0,0-3.148,3.14805v1.07216H348.39885A13.85024,13.85024,0,0,0,334.54861,298.504V578.87887a13.85024,13.85024,0,0,0,13.85024,13.85024H851.60073a13.8503,13.8503,0,0,0,13.8503-13.85029V298.504A13.85024,13.85024,0,0,0,851.60079,284.65378Z" transform="translate(-233.06876 -98.90261)" fill="#3f3d56" /><path d="M359.41357,314.13086a1.29773,1.29773,0,0,0-1.29589,1.29639V581.36914a1.29732,1.29732,0,0,0,1.29589,1.2959H840.58594a1.297,1.297,0,0,0,1.2959-1.2959V315.42725a1.29742,1.29742,0,0,0-1.2959-1.29639Z" transform="translate(-233.06876 -98.90261)" fill="#6c63ff" /><circle cx="366.50903" cy="197.56776" r="5.06425" fill="#6c63ff" /><path d="M874.67264,573.83276H826.48442v-4.97648c0-.27332-.30819-.49487-.6884-.49487H809.27435c-.38021,0-.68841.22155-.68841.49487v4.97648h-10.326v-4.97648c0-.27332-.3082-.49487-.68841-.49487H781.04982c-.38021,0-.6884.22155-.6884.49487v4.97648H770.03537v-4.97648c0-.27332-.30819-.49487-.6884-.49487H752.8253c-.38021,0-.68841.22155-.68841.49487v4.97648h-10.326v-4.97648c0-.27332-.3082-.49487-.68841-.49487H724.60077c-.38021,0-.6884.22155-.6884.49487v4.97648H713.58632v-4.97648c0-.27332-.30819-.49487-.6884-.49487H696.37625c-.38021,0-.68841.22155-.68841.49487v4.97648h-10.326v-4.97648c0-.27332-.3082-.49487-.68841-.49487H668.15172c-.38021,0-.6884.22155-.6884.49487v4.97648H657.13727v-4.97648c0-.27332-.30819-.49487-.6884-.49487H527.0291c-.38021,0-.68841.22155-.68841.49487v4.97648h-10.326v-4.97648c0-.27332-.3082-.49487-.68841-.49487H498.80457c-.38021,0-.6884.22155-.6884.49487v4.97648H487.79012v-4.97648c0-.27332-.30819-.49487-.6884-.49487H470.58005c-.38021,0-.68841.22155-.68841.49487v4.97648h-10.326v-4.97648c0-.27332-.3082-.49487-.68841-.49487H442.35552c-.38021,0-.6884.22155-.6884.49487v4.97648H431.34107v-4.97648c0-.27332-.30819-.49487-.6884-.49487H414.131c-.38021,0-.68841.22155-.68841.49487v4.97648h-10.326v-4.97648c0-.27332-.3082-.49487-.68841-.49487H385.90647c-.38021,0-.6884.22155-.6884.49487v4.97648H374.892v-4.97648c0-.27332-.30819-.49487-.6884-.49487H357.68195c-.38021,0-.68841.22155-.68841.49487v4.97648H325.327c-9.12466,0-16.52167,5.31743-16.52167,11.8768V591.08c0,6.55934,7.397,11.87677,16.52167,11.87677H874.67264c9.12466,0,16.52167-5.31743,16.52167-11.87677v-5.37041C891.19431,579.15019,883.7973,573.83276,874.67264,573.83276Z" transform="translate(-233.06876 -98.90261)" fill="#3f3d56" /><path d="M543.97808,426.01694H401.75433a1.11987,1.11987,0,1,1,0-2.23974H543.97808a1.11987,1.11987,0,1,1,0,2.23974Z" transform="translate(-233.06876 -98.90261)" fill="#f2f2f2" /><path d="M543.97808,450.65413H401.75433a1.11987,1.11987,0,1,1,0-2.23974H543.97808a1.11987,1.11987,0,1,1,0,2.23974Z" transform="translate(-233.06876 -98.90261)" fill="#f2f2f2" /><path d="M543.97808,475.29132H401.75433a1.11988,1.11988,0,1,1,0-2.23975H543.97808a1.11988,1.11988,0,1,1,0,2.23975Z" transform="translate(-233.06876 -98.90261)" fill="#f2f2f2" /><rect x="373.06222" y="262.72169" width="182.53915" height="175.81992" rx="3.35962" fill="#fff" /><path d="M642.683,454.67371a45.00606,45.00606,0,0,1,88.30268-9.48886c.54524-.01956,1.09-.04147,1.64-.04147a17.66745,17.66745,0,0,1,5.51476.93823c22.387,7.35112,16.49195,40.7751-7.07106,40.7751H673.1604a30.44228,30.44228,0,0,1-30.5093-31.51923Q642.66463,455.0061,642.683,454.67371Z" transform="translate(-233.06876 -98.90261)" fill="#6c63ff" /><polygon points="462.397 355.07 462.397 336.649 452.478 336.649 452.478 355.07 444.559 355.07 450.998 366.224 457.438 377.377 463.877 366.224 470.316 355.07 462.397 355.07" fill="#fff" /></svg><svg xmlns="http://www.w3.org/2000/svg" width="693" height="528" viewBox="0 0 693 528" xmlns:xlink="http://www.w3.org/1999/xlink" role="img" artist="Katerina Limpitsouni" source="https://undraw.co/" x="733.8625" y="87.09738"><path d="M946.5,469.5V691.31A22.71737,22.71737,0,0,1,923.81,714H753.67l1.58-2L944.5,472.04Z" transform="translate(-253.5 -186)" fill="#f2f2f2" /><path d="M524.3118,391.368H328.943a6.036,6.036,0,0,0,0,12.072H524.3118a6.036,6.036,0,0,0,0-12.072Z" transform="translate(-253.5 -186)" fill="#e6e6e6" /><path d="M389.51753,357.52356H328.943a6.036,6.036,0,0,0,0,12.072h60.57458a6.036,6.036,0,0,0,0-12.072Z" transform="translate(-253.5 -186)" fill="#e6e6e6" /><path d="M923.81,186H276.19a22.71737,22.71737,0,0,0-22.69,22.69V691.31A22.71737,22.71737,0,0,0,276.19,714H923.81a22.71737,22.71737,0,0,0,22.69-22.69V208.69A22.71737,22.71737,0,0,0,923.81,186ZM944.5,691.31A20.69,20.69,0,0,1,923.81,712H276.19a20.69,20.69,0,0,1-20.69-20.69V343.67554A155.67554,155.67554,0,0,1,411.17554,188H923.81a20.69,20.69,0,0,1,20.69,20.69Z" transform="translate(-253.5 -186)" fill="#e6e6e6" /><path d="M883.39049,273.26853H316.66a1,1,0,0,1,0-2H883.39049a1,1,0,0,1,0,2Z" transform="translate(-253.5 -186)" fill="#e6e6e6" /><ellipse cx="91.51486" cy="48.60301" rx="8.45661" ry="8.64507" fill="#e6e6e6" /><ellipse cx="120.72861" cy="48.60301" rx="8.45661" ry="8.64507" fill="#e6e6e6" /><ellipse cx="149.94237" cy="48.60301" rx="8.45661" ry="8.64507" fill="#e6e6e6" /><path d="M436.75379,241.4358a.9967.9967,0,0,1-.71485-.30078l-5.70605-5.833a.99954.99954,0,0,1,0-1.39844l5.70605-5.83251a1,1,0,1,1,1.42969,1.39843l-5.022,5.1333,5.022,5.13379a1,1,0,0,1-.71484,1.69922Z" transform="translate(-253.5 -186)" fill="#e6e6e6" /><path d="M446.34217,241.4358a1,1,0,0,1-.71485-1.69922l5.02149-5.13379-5.02149-5.1333a1,1,0,0,1,1.42969-1.39843l5.70557,5.83251a.99954.99954,0,0,1,0,1.39844l-5.70557,5.833A.9967.9967,0,0,1,446.34217,241.4358Z" transform="translate(-253.5 -186)" fill="#e6e6e6" /><path d="M832.852,226.95884h-10.61a2.18935,2.18935,0,0,0-2.19,2.19v10.62a2.18936,2.18936,0,0,0,2.19,2.19h10.61a2.19791,2.19791,0,0,0,2.2-2.19v-10.62A2.1979,2.1979,0,0,0,832.852,226.95884Z" transform="translate(-253.5 -186)" fill="#e6e6e6" /><path d="M806.852,226.95884h-10.61a2.18935,2.18935,0,0,0-2.19,2.19v10.62a2.18936,2.18936,0,0,0,2.19,2.19h10.61a2.19791,2.19791,0,0,0,2.2-2.19v-10.62A2.1979,2.1979,0,0,0,806.852,226.95884Z" transform="translate(-253.5 -186)" fill="#e6e6e6" /><path d="M857.352,227.45884h-10.61a2.18935,2.18935,0,0,0-2.19,2.19v10.62a2.18936,2.18936,0,0,0,2.19,2.19h10.61a2.19791,2.19791,0,0,0,2.2-2.19v-10.62A2.1979,2.1979,0,0,0,857.352,227.45884Z" transform="translate(-253.5 -186)" fill="#e6e6e6" /><path d="M642.4303,231.49881h-84.81a2.67,2.67,0,1,0,0,5.34h84.81a2.67,2.67,0,0,0,0-5.34Z" transform="translate(-253.5 -186)" fill="#e6e6e6" /><path d="M415.10743,596.44634l-50.717-1.60323c-7.03419-.22236-14.94447-.211-19.96166,3.42421-5.6943,4.12585-4.83213,11.43535-.10431,16.17646s12.277,7.44976,19.68637,9.652c39.36385,11.7,82.92866,14.07521,125.229,11.42782s83.73-10.13147,124.95545-17.59027c3.91-.70743,8.3414-1.7253,9.93587-4.44631,1.54247-2.63224-.47577-5.80651-3.61075-7.50776s-7.10942-2.27452-10.94329-2.78084a1027.70791,1027.70791,0,0,0-209.50054-5.976" transform="translate(-253.5 -186)" fill="#6c63ff" /><path d="M506.23,557.44v-12c-8.70812.12331-39.87043-.08886-48,.00027-.605,41.94091-4.31337,33.72515,30.04795,33.88847a5.97483,5.97483,0,0,1,5.95226,5.96665l0,.18a5.965,5.965,0,0,1-5.96511,5.96462H458.23v12h48c.0674-.04016-.04859-11.58721.00015-12,2.02955-34.76507-1.98621-22.26148-31.16579-23.65566a5.0949,5.0949,0,0,1-4.83453-5.09462l0-.1499a5.1001,5.1001,0,0,1,5.09983-5.09981Z" transform="translate(-253.5 -186)" fill="#3f3d56" /><path d="M565.23,557.44v-12c-8.70812.12331-39.87043-.08886-48,.00027-.61022,42.30528-4.378,33.57862,30.95215,33.89466a5.1,5.1,0,0,1,5.04814,5.09957c-.00006.63012-.00011,1.27547-.00015,1.90717a5.0988,5.0988,0,0,1-5.09982,5.09833H517.23v12h48c.0674-.04016-.04859-11.58721.00015-12,2.02955-34.76507-1.98621-22.26148-31.16579-23.65566a5.0949,5.0949,0,0,1-4.83453-5.09462l0-.1499a5.1001,5.1001,0,0,1,5.09983-5.09981Z" transform="translate(-253.5 -186)" fill="#3f3d56" /><path d="M444.23,557.44v-12h-48c-.034,10.70325.0245,39.0319-.00007,49.99987-9.40881,15.92872,44.04243,4.90065,48.00271,8.00441C444.23,603.44,444.23,591.44,444.23,591.44c-36.5211-.19074-37.43887,6.6459-36.264-26.42981a7.84378,7.84378,0,0,1,7.83373-7.57093C426.358,557.44,444.23,557.44,444.23,557.44Z" transform="translate(-253.5 -186)" fill="#3f3d56" /><path d="M539.10743,453.11245l-50.717-1.33642c-7.03419-.18536-14.94447-.17591-19.96166,2.85435-5.6943,3.43922-4.83213,9.53228-.10431,13.48439s12.277,6.21,19.68637,8.04575c39.36385,9.75291,82.92866,11.73282,125.229,9.526s83.73-8.4454,124.95545-14.66291c3.91-.5897,8.3414-1.43818,9.93587-3.70636,1.54247-2.19419-.47577-4.84019-3.61075-6.25832s-7.10942-1.896-10.94329-2.31806a1231.4445,1231.4445,0,0,0-209.50054-4.98149" transform="translate(-253.5 -186)" fill="#6c63ff" /><path d="M530.22986,400.44c-.81725,18.52643,5.99213,24.3577-17.501,21.99778-1.58724-11.0521,6.46193-26.38959-11.99874-22.49565,3.69817,8.01754-10.3027,68.844,11.99588,57.99455,1.25236-18.27481-7.00207-26.29029,17.50448-23.49444,1.96518,11.297-7.2074,27.92118,11.99857,23.996C538.53142,450.41692,552.53242,389.596,530.22986,400.44Z" transform="translate(-253.5 -186)" fill="#3f3d56" /><path d="M653.22986,400.44c1.64714,1.01689-15.09043,18.72384-15.45157,20.1747-.50211-1.23824-16.47736-18.56236-14.5483-20.174-22.22954-10.985-8.37541,50.19481-12.00424,58.002.00411-.00271,12.00411-.00271,12.00411-.00271V420.44177c16.86715,22.74983,13.73491,18.92152,30.00031-1.11688L653.22986,458.44c22.2288,10.98872,8.37573-50.19873,12.00412-58.0027C665.22986,400.44,653.22986,400.44,653.22986,400.44Z" transform="translate(-253.5 -186)" fill="#3f3d56" /><path d="M600.22986,400.44h-48c-2.82037,16.82193,6.50508,11.1801,18.00167,11.99963L570.22986,458.44h12v-46C593.67321,411.66182,603.08577,417.18779,600.22986,400.44Z" transform="translate(-253.5 -186)" fill="#3f3d56" /><path d="M687.22986,446.44a128.27936,128.27936,0,0,1,0-46h-12c.06918,7.60291-.02139,38.28212-.01434,52.31169a5.71,5.71,0,0,0,5.7058,5.71268c12.08981.016,35.17-.07316,42.30866-.02419L723.22986,446.44Z" transform="translate(-253.5 -186)" fill="#3f3d56" /><path d="M380.68115,448.44H331.907a9,9,0,0,0,0,18h48.77419a9,9,0,0,0,0-18Z" transform="translate(-253.5 -186)" fill="#e6e6e6" /><polygon points="569.392 517.568 559.491 517.567 554.781 479.377 569.394 479.378 569.392 517.568" fill="#ffb6b6" /><path d="M823.24065,713.89669l-30.447-.00115v-.385a11.85147,11.85147,0,0,1,11.85083-11.85065h.00073l5.56152-4.21924,10.37659,4.21991,2.65784.00006Z" transform="translate(-253.5 -186)" fill="#2f2e41" /><polygon points="604.392 517.568 594.491 517.567 589.781 479.377 604.394 479.378 604.392 517.568" fill="#ffb6b6" /><path d="M858.24065,713.89669l-30.447-.00115v-.385a11.85147,11.85147,0,0,1,11.85083-11.85065h.00073l5.56152-4.21924,10.37659,4.21991,2.65784.00006Z" transform="translate(-253.5 -186)" fill="#2f2e41" /><path d="M798.23947,495.48018s-9.5262,29.25813-7.76785,33.109S795.23,529.44,792.23,532.44s-5.61884-.189-2.80942,4.90551,7.06559,47.03407,8.93751,49.06428,4.44568,2.08468,2.15879,4.05745S795.23,588.44,798.23,592.44s10.96063,96.27559,10.96063,96.27559h15.55114s3.87318-4.46456,1.68071-7.37008.19247-4.02548,0-5.96549.53674-6.12277.67213-8.03139,2.76354-47.37757-3.55054-73.6431l11.51362-50.01216,5.75679,60.44638s-6.41553,50.70183,0,67.001c0,0-5.17233,4.30709-2.87841,6.80315S842.23,678.44,840.23,680.44s3,9,3,9l17-1,9.62205-94.73447s1.622-9.8797,0-11.57261S868.23,586.44,868.23,580.44v-8s7.25056-49.20472,7.12528-52.10236S863.23,496.44,863.23,496.44Z" transform="translate(-253.5 -186)" fill="#2f2e41" /><path d="M848.51935,377.14728l-24.823-1.70728-7.42785,11.712-17.88863,7.27293v57.69454A55.60033,55.60033,0,0,1,801.23,469.44c-.06823,11.49453-3.02253,25.03466-2,28,10,29,65,0,65,0l-1-31,1.3574-70.05937-11.23893-8.96384Z" transform="translate(-253.5 -186)" fill="#e6e6e6" /><path d="M797.23253,508.00462,795.521,489.76337l-10.55686-.47618,2.49569,19.2214a6.13324,6.13324,0,1,0,9.77265-.504Z" transform="translate(-253.5 -186)" fill="#ffb6b6" /><path d="M802.42783,392.88645l-.29266.04951a16.98787,16.98787,0,0,0-12.58455,9.62841c-3.02332,6.5379-12.8398,49.51683-8.53654,55.99808,3.3376,5.02689,2.52673,4.04615.95778,7.838s-4.0957-.25436-2.02478,5.76366,4.34666,5.1593,2.42433,7.48456-3.89421,1.86944-2.02477,5.76366,1.56555,5.20879,1.91895,6.67532.04613,11.78169.04613,11.78169,11.27634-.85538,16.888,1.82668c0,0-3.13114-10.41759-1.36073-12.08558s3.89423-1.86945,2.37818-4.29714-4.95445-2.53012-1.21216-3.74229,2.5369-22.95558,2.5369-22.95558C807.70522,446.47493,805.26991,419.92688,802.42783,392.88645Z" transform="translate(-253.5 -186)" fill="#e6e6e6" /><path d="M870.42228,509.30641l.78906-18.30436,10.51939-1.00815-1.52282,19.32283a6.13324,6.13324,0,1,1-9.78563-.01032Z" transform="translate(-253.5 -186)" fill="#ffb6b6" /><path d="M859.42612,394.59691l.29478.03468a16.9879,16.9879,0,0,1,13.05426,8.98129c3.34929,6.37706,13.94508,49.56879,11.35067,55.49615-2.41947,5.52769-2.3194,4.16845-.56116,7.87628s4.07765-.46066,2.313,5.65418-4.08085,5.372-2.04366,7.59733,3.98356,1.6706,2.313,5.65417-1.30078,5.28114-1.57975,6.76363.54829,11.769.54829,11.769-11.30514-.28542-16.77439,2.67632c0,0,2.60161-10.56228.74931-12.13883s-3.98358-1.67062-2.59193-4.17169,4.8205-2.77685,1.02182-3.79868-3.6917-22.79838-3.6917-22.79838Z" transform="translate(-253.5 -186)" fill="#e6e6e6" /><circle cx="583.21719" cy="166.41031" r="19.36219" fill="#ffb6b6" /><path d="M850.19186,368.98408c2.69286-2.10746,2.95426-6.12449,5.25223-8.65672,3.8421-4.23373,5.64722-8.78866,3.63458-13.80527-1.78015-4.437-1.40178-9.89125-5.23573-12.74732,1.883-.68165,2.32615-2.09722.66469-2.12336-1.12042-.01762-5.29722,2.12375-3.28744-.54383s-1.7946-1.61462-1.543-2.70656,1.8652-1.69671,2.57686-.83115a5.6397,5.6397,0,0,0-8.84591,1.01189c-2.26458-3.39392-4.66838-5.72925-8.13365-3.57547-3.40345,2.11532-3.359,4.73016-7.01886,4.10174-1.72058-.29541-1.88315,2.95523-3.05854,4.246a5.24691,5.24691,0,0,1-4.609,1.96555c-1.7154-.32418-3.02709-2.46193-2.06587-3.91923l-4.043,9.22356-1.62943-1.99866c-2.58913,1.68734-1.73874,6.09027.86747,7.7511s5.993,1.30585,8.99444.56967a35.27556,35.27556,0,0,1,11.05161-.91662c5.6662.80049,9.61278,7.57467,7.51461,12.89861,2.177-2.13776,6.20431-.36368,7.3321,2.47138s.30082,6.02913-.5352,8.96351" transform="translate(-253.5 -186)" fill="#2f2e41" /></svg><svg xmlns="http://www.w3.org/2000/svg" width="697.48425" height="461.23435" viewBox="0 0 697.48425 461.23435" xmlns:xlink="http://www.w3.org/1999/xlink" role="img" artist="Katerina Limpitsouni" source="https://undraw.co/" x="1426.8625" y="120.48021"><path d="M772.03739,521.9677a6.816,6.816,0,0,1,4.23934-8.59309,6.63976,6.63976,0,0,1,1.06574-.25678l3.65181-14.98328,9.52107.02944-5.45015,21.08585a6.79262,6.79262,0,0,1-4.55318,7.0165A6.68025,6.68025,0,0,1,772.03739,521.9677Z" transform="translate(-251.25787 -219.38283)" fill="#9f616a" /><path d="M788.112,512.27175l-14.5821-1.02465,7.06247-42.67513-4.49427-46.99,14.74064-6.12839,9.8301,52.18271-.02686.09511Z" transform="translate(-251.25787 -219.38283)" fill="#2f2e41" /><path d="M675.36028,507.27008a6.75056,6.75056,0,0,1,6.62337-6.87134,6.62778,6.62778,0,0,1,1.09218.08525L691.063,487.3455l9.058,2.97424-11.53638,18.39348a6.68783,6.68783,0,0,1-13.22433-1.44314Z" transform="translate(-251.25787 -219.38283)" fill="#9f616a" /><polygon points="469.071 452.168 461.314 452.168 457.624 421.83 469.073 421.831 469.071 452.168" fill="#9f616a" /><path d="M722.3074,679.17549l-25.01181-.00094v-.32078a9.87623,9.87623,0,0,1,2.85186-6.98009,9.60472,9.60472,0,0,1,6.88343-2.89109h.00062l15.27636.00063Z" transform="translate(-251.25787 -219.38283)" fill="#2f2e41" /><polygon points="523.187 452.168 515.43 452.168 511.74 421.83 523.188 421.831 523.187 452.168" fill="#9f616a" /><path d="M776.423,679.17549l-25.01182-.00094v-.32078a9.87629,9.87629,0,0,1,2.85187-6.98009,9.6047,9.6047,0,0,1,6.88343-2.89109h.00062l15.27636.00063Z" transform="translate(-251.25787 -219.38283)" fill="#2f2e41" /><ellipse cx="515.81024" cy="148.59277" rx="18.42846" ry="18.68597" fill="#9f616a" /><path d="M760.84393,366.95084a12.35944,12.35944,0,0,1-15.21708-5.47224,12.72349,12.72349,0,0,1,3.901-15.88632c4.90489-3.32829,12.23-2.22669,16.985,1.63339a16.4326,16.4326,0,0,1,19.18179,4.03624c4.5902,5.38421,5.092,13.93075,1.74685,20.20734a22.236,22.236,0,0,0,1.27066,20.56671c-1.43927-.0595-4.60723-.32982-8.57117-.6766-1.14708-.10035-1.64319-3.51676-2.901-3.62665-1.10924-.09692-2.97036,3.11337-4.13262,3.01379-8.6087-.73756-18.24663-1.48682-22.61445-1.34025A241.58716,241.58716,0,0,1,760.84393,366.95084Z" transform="translate(-251.25787 -219.38283)" fill="#2f2e41" /><path d="M781.20064,499.61552s5.98934,6.26095,2.33226,38.592l-2.52661,68.65109-4.47016,60.78749-14.38224-.96965L749.52084,526.76567l-17.68626,51.19742-9.52338,84.64083-13.79918-.96965-2.35655-84.17039,6.04929-65.049Z" transform="translate(-251.25787 -219.38283)" fill="#2f2e41" /><path d="M721.92327,516.33092c-7.35829.00041-10.32193-.89662-10.53859-.96571l-.34152-.10893.05993-.35767c.0491-.29386,4.99291-29.52053,11.77619-44.86466l4.76985-62.22638a8.16093,8.16093,0,0,1,6.836-7.49607l.06374.41132-.06374-.41132,12.13315-1.93143,7.422-6.62668,17.78.997,1.5679,7.62613c2.12648.60276,16.15942,4.96351,17.54835,15.40591l.01723.13087-.05992.11665-25.70853,50.14723c2.17257,2.17408,19.34132,20.05727,20.50658,42.91941l.02805.54992-.52931-.12274c-.0493-.01016-5.54367-1.069-34.43531,3.88358C737.39325,515.69727,728.10649,516.33092,721.92327,516.33092Z" transform="translate(-251.25787 -219.38283)" fill="#2f2e41" /><path d="M693.42306,506.96723l-10.47887-8.18255,23.38825-47.44762,21.75321-46.503a3.4598,3.4598,0,0,1,6.49127.5739l5.38433,19.80608L723.1236,469.63279Z" transform="translate(-251.25787 -219.38283)" fill="#2f2e41" /><path d="M918.36477,678.837l.62262-1.15126c-8.34812-4.51495-18.73781-10.13354-24.16445-19.35423-5.34945-9.08964-5.46946-21.43268-.3132-32.21247,4.38806-9.17433,12.44869-17.39365,23.31031-23.76971,2.1424-1.2577,4.3914-2.44956,6.56641-3.60242,5.25725-2.78612,10.69349-5.66748,15.176-9.75508,6.17376-5.63008,10.845-15.078,7.3634-23.49358a15.61545,15.61545,0,0,0-13.535-9.47l-.07384,1.30724a14.30953,14.30953,0,0,1,12.40281,8.67191c3.23533,7.82044-1.20354,16.695-7.03947,22.01726-4.35992,3.97574-9.72169,6.81747-14.90687,9.56555-2.18731,1.15925-4.44926,2.35814-6.61627,3.63022-11.08759,6.50871-19.32737,14.923-23.82841,24.33353-5.34164,11.16748-5.2015,23.98164.36594,33.44172C899.30623,668.53019,909.87362,674.2453,918.36477,678.837Z" transform="translate(-251.25787 -219.38283)" fill="#f1f1f1" /><ellipse cx="673.83562" cy="337.98147" rx="11.45514" ry="5.56393" fill="#f1f1f1" /><ellipse cx="664.67148" cy="374.63791" rx="11.45514" ry="5.56393" fill="#f1f1f1" /><ellipse cx="685.61801" cy="380.52914" rx="11.45514" ry="5.56393" fill="#f1f1f1" /><ellipse cx="652.88901" cy="411.29435" rx="11.45514" ry="5.56393" fill="#f1f1f1" /><ellipse cx="629.97873" cy="411.29433" rx="11.45514" ry="5.56393" fill="#f1f1f1" /><path d="M947.25787,680.61717H573.74213a1,1,0,0,1,0-2h374a1.00006,1.00006,0,0,1,1,1C948.74213,680.16942,947.81012,680.61717,947.25787,680.61717Z" transform="translate(-251.25787 -219.38283)" fill="#cbcbcb" /><path d="M479.79658,331.15406h-166a5.0058,5.0058,0,0,1-5-5v-56a5.00581,5.00581,0,0,1,5-5h166a5.00573,5.00573,0,0,1,5,5v56A5.00573,5.00573,0,0,1,479.79658,331.15406Z" transform="translate(-251.25787 -219.38283)" fill="#3f3d56" /><rect x="83.53871" y="60.77124" width="44" height="5" fill="#fff" /><circle cx="185.53871" cy="63.77124" r="3" fill="#6c63ff" /><circle cx="195.53871" cy="63.77124" r="3" fill="#6c63ff" /><circle cx="205.53871" cy="63.77124" r="3" fill="#6c63ff" /><path d="M479.79658,402.15406h-166a5.0058,5.0058,0,0,1-5-5v-56a5.00581,5.00581,0,0,1,5-5h166a5.00573,5.00573,0,0,1,5,5v56A5.00573,5.00573,0,0,1,479.79658,402.15406Z" transform="translate(-251.25787 -219.38283)" fill="#3f3d56" /><rect x="83.53871" y="131.77124" width="44" height="5" fill="#fff" /><circle cx="185.53871" cy="134.77124" r="3" fill="#6c63ff" /><circle cx="195.53871" cy="134.77124" r="3" fill="#6c63ff" /><circle cx="205.53871" cy="134.77124" r="3" fill="#6c63ff" /><path d="M479.79658,473.15406h-166a5.0058,5.0058,0,0,1-5-5v-56a5.00581,5.00581,0,0,1,5-5h166a5.00573,5.00573,0,0,1,5,5v56A5.00573,5.00573,0,0,1,479.79658,473.15406Z" transform="translate(-251.25787 -219.38283)" fill="#3f3d56" /><rect x="83.53871" y="202.77124" width="44" height="5" fill="#fff" /><circle cx="185.53871" cy="205.77124" r="3" fill="#6c63ff" /><circle cx="195.53871" cy="205.77124" r="3" fill="#6c63ff" /><circle cx="205.53871" cy="205.77124" r="3" fill="#6c63ff" /><polygon points="168 297.234 0 297.234 0 231 2 231 2 295.234 168 295.234 168 297.234" fill="#ccc" /><polygon points="105 0 273 0 273 66.234 271 66.234 271 2 105 2 105 0" fill="#ccc" /></svg><svg xmlns="http://www.w3.org/2000/svg" data-name="Layer 1" width="786.81995" height="572.25773" viewBox="0 0 786.81995 572.25773" xmlns:xlink="http://www.w3.org/1999/xlink" x="112.38168" y="771.4694"><circle cx="458.32136" cy="74.18162" r="26.70075" fill="#f2f2f2" /><path d="M872.03753,661.02307c39.6877-30.22889,58.64352-81.02546,46.77635-129.48234q-.44231-1.806-.93367-3.6038c-7.86742-28.76343-27.33167-56.10058-55.7-65.29129-23.81971-7.71694-49.81962-1.78274-74.66936-4.85149-48.78136-6.02417-86.60057-45.494-113.21115-86.81933-26.61064-41.32546-47.06182-87.58331-82.42157-121.72413-58.28479-56.27536-153.36192-68.39149-225.62671-31.76044C293.98673,254.12142,247.95487,335.39062,249.918,416.38554c1.96322,80.995,50.04632,158.43176,119.87492,199.517,25.65222,15.093,55.32138,25.78522,84.84826,22.04377,25.62011-3.24641,48.89908-17.01264,74.39861-21.09959,40.09115-6.42568,79.92687,11.70084,114.60268,32.82375,34.67571,21.12288,68.17007,46.15988,107.57436,55.95242C789.47831,715.13139,836.88051,687.80109,872.03753,661.02307Z" transform="translate(-206.59003 -163.87113)" fill="#f2f2f2" /><path d="M815.016,219.19108c-.87006-.58-1.75-1.13-2.62006-1.69a380.24008,380.24008,0,0,0-80.31-38.93l-6.54,90.22h-41.46v-103.39c-2.61-.54-5.24-1.05-7.87-1.53v104.92H626.94587A102.26992,102.26992,0,0,1,524.67595,166.5212v-.0001c-2.64.57-5.26,1.18-7.88,1.83v100.44h-40.13l-6.23-86.03a380.8581,380.8581,0,0,0-81.94,43.53c-.44.3-.88.61-1.31.91-2.21,1.55-4.39,3.13-6.56,4.73v344.19h118.27l-2.09-28.95-11.5-158.95h231.59l-11.5,158.95-2.09,28.95h116.96v-353.45Q817.65591,220.90114,815.016,219.19108Zm-298.22,142.78h-33.39l-6.17-85.3h39.56Zm159.42,0h-56.08v-1.69a6.17975,6.17975,0,0,0-6.19-6.18h-24.38a6.17757,6.17757,0,0,0-6.18,6.18v1.69h-58.71v-85.3h151.54Zm7.87,0v-85.3h40.89l-6.17,85.3Z" transform="translate(-206.59003 -163.87113)" fill="#3f3d56" /><path d="M206.59,598.16193a289.0029,289.0029,0,0,0,28.12,28.95l730.58,1a289.0029,289.0029,0,0,0,28.12-28.95Z" transform="translate(-206.59003 -163.87113)" fill="#3f3d56" /><path d="M702.01993,505.46245v85.704a4.12233,4.12233,0,0,0,4.11906,4.11907H833.14348a4.12232,4.12232,0,0,0,4.11907-4.11907v-85.704a4.12433,4.12433,0,0,0-4.11907-4.11452H706.139A4.12434,4.12434,0,0,0,702.01993,505.46245Z" transform="translate(-206.59003 -163.87113)" fill="#3f3d56" /><path d="M704.99939,506.52881V590.1092a2.20523,2.20523,0,0,0,2.20141,2.20141H832.08626a2.20522,2.20522,0,0,0,2.20141-2.20141V506.52881a2.20621,2.20621,0,0,0-2.20141-2.206H707.2008A2.20623,2.20623,0,0,0,704.99939,506.52881Z" transform="translate(-206.59003 -163.87113)" fill="#6c63ff" /><path d="M699.36376,607.881a2.46985,2.46985,0,0,0,1.94346.92984H837.29917a2.5024,2.5024,0,0,0,2.44606-3.0157l-2.111-10.02722a2.50694,2.50694,0,0,0-1.55811-1.81784,2.42467,2.42467,0,0,0-.888-.1675H703.40985a2.42446,2.42446,0,0,0-.888.1675,2.50671,2.50671,0,0,0-1.55811,1.81784l-2.111,10.02722A2.5005,2.5005,0,0,0,699.36376,607.881Z" transform="translate(-206.59003 -163.87113)" fill="#2f2e41" /><rect x="830.03379" y="595.58843" width="4.18849" height="2.51309" rx="0.48819" transform="translate(1457.66604 1029.81882) rotate(-180)" fill="#3f3d56" /><rect x="821.65681" y="595.58843" width="4.18849" height="2.51309" rx="0.48819" transform="translate(1440.91208 1029.81882) rotate(-180)" fill="#3f3d56" /><rect x="813.27982" y="595.58843" width="4.18849" height="2.51309" rx="0.48819" transform="translate(1424.15811 1029.81882) rotate(-180)" fill="#3f3d56" /><rect x="804.90284" y="595.58843" width="4.18849" height="2.51309" rx="0.48819" transform="translate(1407.40415 1029.81882) rotate(-180)" fill="#3f3d56" /><rect x="796.52586" y="595.58843" width="4.18849" height="2.51309" rx="0.48819" transform="translate(1390.65018 1029.81882) rotate(-180)" fill="#3f3d56" /><rect x="788.14888" y="595.58843" width="4.18849" height="2.51309" rx="0.48819" transform="translate(1373.89622 1029.81882) rotate(-180)" fill="#3f3d56" /><rect x="779.7719" y="595.58843" width="4.18849" height="2.51309" rx="0.48819" transform="translate(1357.14226 1029.81882) rotate(-180)" fill="#3f3d56" /><rect x="771.39491" y="595.58843" width="4.18849" height="2.51309" rx="0.48819" transform="translate(1340.38829 1029.81882) rotate(-180)" fill="#3f3d56" /><rect x="763.01793" y="595.58843" width="4.18849" height="2.51309" rx="0.48819" transform="translate(1323.63433 1029.81882) rotate(-180)" fill="#3f3d56" /><rect x="754.64095" y="595.58843" width="4.18849" height="2.51309" rx="0.48819" transform="translate(1306.88037 1029.81882) rotate(-180)" fill="#3f3d56" /><rect x="746.26397" y="595.58843" width="4.18849" height="2.51309" rx="0.48819" transform="translate(1290.1264 1029.81882) rotate(-180)" fill="#3f3d56" /><rect x="737.88699" y="595.58843" width="4.18849" height="2.51309" rx="0.48819" transform="translate(1273.37244 1029.81882) rotate(-180)" fill="#3f3d56" /><rect x="729.51001" y="595.58843" width="4.18849" height="2.51309" rx="0.48819" transform="translate(1256.61847 1029.81882) rotate(-180)" fill="#3f3d56" /><rect x="721.13302" y="595.58843" width="4.18849" height="2.51309" rx="0.48819" transform="translate(1239.86451 1029.81882) rotate(-180)" fill="#3f3d56" /><rect x="712.75604" y="595.58843" width="4.18849" height="2.51309" rx="0.48819" transform="translate(1223.11055 1029.81882) rotate(-180)" fill="#3f3d56" /><rect x="704.37906" y="595.58843" width="4.18849" height="2.51309" rx="0.48819" transform="translate(1206.35658 1029.81882) rotate(-180)" fill="#3f3d56" /><rect x="830.13277" y="599.77692" width="4.18849" height="2.51309" rx="0.48819" transform="translate(1457.86401 1038.1958) rotate(-180)" fill="#3f3d56" /><rect x="821.75579" y="599.77692" width="4.18849" height="2.51309" rx="0.48819" transform="translate(1441.11005 1038.1958) rotate(-180)" fill="#3f3d56" /><rect x="813.37881" y="599.77692" width="4.18849" height="2.51309" rx="0.48819" transform="translate(1424.35608 1038.1958) rotate(-180)" fill="#3f3d56" /><rect x="805.00183" y="599.77692" width="4.18849" height="2.51309" rx="0.48819" transform="translate(1407.60212 1038.1958) rotate(-180)" fill="#3f3d56" /><rect x="796.62485" y="599.77692" width="4.18849" height="2.51309" rx="0.48819" transform="translate(1390.84816 1038.1958) rotate(-180)" fill="#3f3d56" /><rect x="788.24786" y="599.77692" width="4.18849" height="2.51309" rx="0.48819" transform="translate(1374.09419 1038.1958) rotate(-180)" fill="#3f3d56" /><rect x="779.87088" y="599.77692" width="4.18849" height="2.51309" rx="0.48819" transform="translate(1357.34023 1038.1958) rotate(-180)" fill="#3f3d56" /><rect x="771.4939" y="599.77692" width="4.18849" height="2.51309" rx="0.48819" transform="translate(1340.58627 1038.1958) rotate(-180)" fill="#3f3d56" /><rect x="763.11692" y="599.77692" width="4.18849" height="2.51309" rx="0.48819" transform="translate(1323.8323 1038.1958) rotate(-180)" fill="#3f3d56" /><rect x="754.73994" y="599.77692" width="4.18849" height="2.51309" rx="0.48819" transform="translate(1307.07834 1038.1958) rotate(-180)" fill="#3f3d56" /><rect x="746.36295" y="599.77692" width="4.18849" height="2.51309" rx="0.48819" transform="translate(1290.32437 1038.1958) rotate(-180)" fill="#3f3d56" /><rect x="737.98597" y="599.77692" width="4.18849" height="2.51309" rx="0.48819" transform="translate(1273.57041 1038.1958) rotate(-180)" fill="#3f3d56" /><rect x="729.60899" y="599.77692" width="4.18849" height="2.51309" rx="0.48819" transform="translate(1256.81645 1038.1958) rotate(-180)" fill="#3f3d56" /><rect x="721.23201" y="599.77692" width="4.18849" height="2.51309" rx="0.48819" transform="translate(1240.06248 1038.1958) rotate(-180)" fill="#3f3d56" /><rect x="712.85503" y="599.77692" width="4.18849" height="2.51309" rx="0.48819" transform="translate(1223.30852 1038.1958) rotate(-180)" fill="#3f3d56" /><rect x="704.47805" y="599.77692" width="4.18849" height="2.51309" rx="0.48819" transform="translate(1206.55456 1038.1958) rotate(-180)" fill="#3f3d56" /><rect x="760.60382" y="604.80311" width="33.50793" height="2.51309" rx="0.48819" transform="translate(1348.12555 1048.24818) rotate(-180)" fill="#3f3d56" /><rect x="515.63106" y="358.73707" width="5.96585" height="3.12216" rx="1.56108" fill="#fff" /><rect x="548.15407" y="358.73707" width="5.96585" height="3.12216" rx="1.56108" fill="#fff" /><rect x="557.36892" y="358.73707" width="5.96585" height="3.12216" rx="1.56108" fill="#fff" /><rect x="524.47742" y="358.4768" width="20.79613" height="3.12216" rx="1.56108" fill="#fff" /><rect x="567.84144" y="358.4768" width="20.79613" height="3.12216" rx="1.56108" fill="#fff" /><rect x="524.30386" y="365.78373" width="5.96585" height="3.12216" rx="1.56108" fill="#fff" /><rect x="556.82687" y="365.78373" width="5.96585" height="3.12216" rx="1.56108" fill="#fff" /><rect x="566.04172" y="365.78373" width="5.96585" height="3.12216" rx="1.56108" fill="#fff" /><rect x="533.15023" y="365.52345" width="20.79613" height="3.12216" rx="1.56108" fill="#fff" /><rect x="576.51424" y="365.52345" width="20.79613" height="3.12216" rx="1.56108" fill="#fff" /><rect x="532.97666" y="372.83038" width="5.96585" height="3.12216" rx="1.56108" fill="#fff" /><rect x="565.49967" y="372.83038" width="5.96585" height="3.12216" rx="1.56108" fill="#fff" /><rect x="574.71453" y="372.83038" width="5.96585" height="3.12216" rx="1.56108" fill="#fff" /><rect x="541.82303" y="372.57011" width="20.79613" height="3.12216" rx="1.56108" fill="#fff" /><rect x="585.18704" y="372.57011" width="20.79613" height="3.12216" rx="1.56108" fill="#fff" /><rect x="541.64947" y="379.87703" width="5.96585" height="3.12216" rx="1.56108" fill="#fff" /><rect x="574.17248" y="379.87703" width="5.96585" height="3.12216" rx="1.56108" fill="#fff" /><rect x="583.38733" y="379.87703" width="5.96585" height="3.12216" rx="1.56108" fill="#fff" /><rect x="550.49583" y="379.61676" width="20.79613" height="3.12216" rx="1.56108" fill="#fff" /><rect x="548.15407" y="407.89751" width="5.96585" height="3.12216" rx="1.56108" fill="#fff" /><rect x="557.36892" y="407.89751" width="5.96585" height="3.12216" rx="1.56108" fill="#fff" /><rect x="567.84144" y="408.15779" width="20.79613" height="3.12216" rx="1.56108" fill="#fff" /><rect x="515.63106" y="407.89751" width="5.96585" height="3.12216" rx="1.56108" fill="#fff" /><rect x="524.47742" y="408.15779" width="20.79613" height="3.12216" rx="1.56108" fill="#fff" /><rect x="524.30386" y="400.85086" width="5.96585" height="3.12216" rx="1.56108" fill="#fff" /><rect x="556.82687" y="400.85086" width="5.96585" height="3.12216" rx="1.56108" fill="#fff" /><rect x="566.04172" y="400.85086" width="5.96585" height="3.12216" rx="1.56108" fill="#fff" /><rect x="533.15023" y="401.11113" width="20.79613" height="3.12216" rx="1.56108" fill="#fff" /><rect x="532.97666" y="393.80421" width="5.96585" height="3.12216" rx="1.56108" fill="#fff" /><rect x="565.49967" y="393.80421" width="5.96585" height="3.12216" rx="1.56108" fill="#fff" /><rect x="574.71453" y="393.80421" width="5.96585" height="3.12216" rx="1.56108" fill="#fff" /><rect x="541.82303" y="394.06448" width="20.79613" height="3.12216" rx="1.56108" fill="#fff" /><rect x="541.64947" y="386.75755" width="5.96585" height="3.12216" rx="1.56108" fill="#fff" /><rect x="574.17248" y="386.75755" width="5.96585" height="3.12216" rx="1.56108" fill="#fff" /><rect x="583.38733" y="386.75755" width="5.96585" height="3.12216" rx="1.56108" fill="#fff" /><rect x="550.49583" y="387.01783" width="20.79613" height="3.12216" rx="1.56108" fill="#fff" /><path d="M711.50727,654.35273l-13.34954-21.10162,41.902-33.40283,17.29534-19.16107a19.16138,19.16138,0,0,1,32.418,6.8279h0a19.16136,19.16136,0,0,1-11.57015,23.991l-27.3488,10.07535Z" transform="translate(-206.59003 -163.87113)" fill="#ffb6b6" /><path d="M398.28,501.35193v102.56h71.85v-102.56a3.448,3.448,0,0,0-2.43-3.3,3.1749,3.1749,0,0,0-1.03-.16H401.75A3.46328,3.46328,0,0,0,398.28,501.35193Zm28.04,35.24a7.67033,7.67033,0,0,1,15.34,0v11.9a7.6701,7.6701,0,0,1-15.34,0Z" transform="translate(-206.59003 -163.87113)" fill="#2f2e41" /><path d="M398.06006,600.632v9.89a1.94622,1.94622,0,0,0,1.93,1.94h68.43a1.93972,1.93972,0,0,0,1.93-1.94v-9.89Z" transform="translate(-206.59003 -163.87113)" fill="#3f3d56" /><path d="M285.25,346.832V534.09192a9.00714,9.00714,0,0,0,9,9h277.5a9.0071,9.0071,0,0,0,9-9V346.832a9.01147,9.01147,0,0,0-9-8.99H294.25A9.01151,9.01151,0,0,0,285.25,346.832Z" transform="translate(-206.59003 -163.87113)" fill="#3f3d56" /><path d="M291.76,349.16193v182.62a4.81833,4.81833,0,0,0,4.81,4.81H569.44a4.81829,4.81829,0,0,0,4.81-4.81v-182.62a4.82047,4.82047,0,0,0-4.81-4.82H296.57A4.82051,4.82051,0,0,0,291.76,349.16193Z" transform="translate(-206.59003 -163.87113)" fill="#fff" /><path d="M342.4,611.79193a2.9484,2.9484,0,0,0,2.32,1.11h162.34a2.98725,2.98725,0,0,0,2.92-3.6l-2.52-11.97a2.99264,2.99264,0,0,0-1.86-2.17,2.89454,2.89454,0,0,0-1.06-.19995H347.23a2.8943,2.8943,0,0,0-1.06.19995,2.99239,2.99239,0,0,0-1.86,2.17l-2.52,11.97A2.985,2.985,0,0,0,342.4,611.79193Z" transform="translate(-206.59003 -163.87113)" fill="#2f2e41" /><path d="M560.58451,369.49866H305.26115a1.0156,1.0156,0,0,1,0-2.0307H560.58451a1.0156,1.0156,0,0,1,0,2.0307Z" transform="translate(-206.59003 -163.87113)" fill="#3f3d56" /><ellipse cx="116.05131" cy="192.32963" rx="5.95043" ry="6.08304" fill="#3f3d56" /><ellipse cx="136.60733" cy="192.32963" rx="5.95043" ry="6.08304" fill="#3f3d56" /><ellipse cx="157.16336" cy="192.32963" rx="5.95043" ry="6.08304" fill="#3f3d56" /><path d="M548.20637,351.622h-14.6a1.1053,1.1053,0,0,0,0,2.21h14.6a1.10511,1.10511,0,0,0,0-2.21Z" transform="translate(-206.59003 -163.87113)" fill="#3f3d56" /><path d="M548.20637,355.772h-14.6a1.10527,1.10527,0,0,0,0,2.21h14.6a1.10508,1.10508,0,0,0,0-2.21Z" transform="translate(-206.59003 -163.87113)" fill="#3f3d56" /><path d="M548.20637,359.92194h-14.6a1.1053,1.1053,0,0,0,0,2.21h14.6a1.10511,1.10511,0,0,0,0-2.21Z" transform="translate(-206.59003 -163.87113)" fill="#3f3d56" /><path d="M900.18575,604.97238a6.41621,6.41621,0,0,0,6.1831,4.331l26.49183-.68178a6.3285,6.3285,0,0,0,5.98085-4.657l3.74888-40.08721a9.79409,9.79409,0,0,0,4.23793.87079,9.66133,9.66133,0,1,0-.4849-19.31658,8.18393,8.18393,0,0,0-1.73618.18056,6.54764,6.54764,0,0,0-4.87405-2.103l-40.75051,1.05229a5.85294,5.85294,0,0,0-1.00519.1248,6.36455,6.36455,0,0,0-4.87318,8.26464Zm43.17345-43.81684,2.66764-9.55274a6.50649,6.50649,0,0,0,.02036-3.37458c.12944-.00034.24363-.06169.37307-.062a6.91049,6.91049,0,0,1,.32357,13.81714A6.50527,6.50527,0,0,1,943.3592,561.15554Z" transform="translate(-206.59003 -163.87113)" fill="#2f2e41" /><path d="M897.97751,544.68623c.86818,4.96412,10.62909,8.45387,22.36585,7.84729,10.79271-.49726,19.61745-4.287,21.23421-8.7785a6.02511,6.02511,0,0,0-1.84436-.24588l-40.75051,1.05229A5.85294,5.85294,0,0,0,897.97751,544.68623Z" transform="translate(-206.59003 -163.87113)" fill="#3f3d56" /><path d="M922.49438,582.94415a.49659.49659,0,0,0,.15091-.06642l5.75315-3.76566a.49923.49923,0,0,0,.00032-.83621l-5.97978-3.91667a.49972.49972,0,1,0-.54792.83585l5.34091,3.49818-5.114,3.34794a.49991.49991,0,0,0,.39637.903Z" transform="translate(-206.59003 -163.87113)" fill="#6c63ff" /><path d="M913.40762,583.36319a.5.5,0,0,0,.12608-.91842l-5.30306-3.04034,5.1256-3.80723a.49963.49963,0,1,0-.596-.80208l-5.73862,4.26265a.49951.49951,0,0,0,.04918.83476l5.96525,3.41968A.4997.4997,0,0,0,913.40762,583.36319Z" transform="translate(-206.59003 -163.87113)" fill="#6c63ff" /><path d="M921.92215,586.24416a.48233.48233,0,0,0,.137-.05785.49976.49976,0,0,0,.16752-.68714l-8.15548-13.40836a.50026.50026,0,0,0-.85442.52058l8.15548,13.40835A.50035.50035,0,0,0,921.92215,586.24416Z" transform="translate(-206.59003 -163.87113)" fill="#6c63ff" /><rect x="209.38454" y="260.82713" width="50.71916" height="10.8457" rx="3.26417" fill="#6c63ff" /><rect x="183.62601" y="282.51852" width="102.23622" height="10.8457" rx="3.26417" fill="#e6e6e6" /><rect x="183.62601" y="304.20991" width="102.23622" height="10.8457" rx="3.26417" fill="#e6e6e6" /><path d="M497.30123,540.717l.21675.68444.01142.02283,6.52515,19.838,7.50627,22.86094,14.1227,42.96133.13688,6.67346v.02283l1.04949,53.6845-2.90894,7.2781,3.274,11.93237s-1.50582-18.037-9.5824-7.67884c-4.57448,5.8864-9.92468,11.90961-14.31668,17.55642q9.59964,3.88436,19.50716,7.0271c1.426.45633,2.86334.88983,4.30071,1.32333q.46194.13692.924.27377a266.86342,266.86342,0,0,0,67.35086,10.82587c1.18637.03425,2.35.057,3.47932.07986.39932.01142.78714.02284,1.175.02284,1.27765.01142,2.54389.02277,3.82154.02277q3.86721,0,7.70018-.11405a266.85337,266.85337,0,0,0,56.09149-7.58613c-.12547-7.58606-.46768-16.44984-.9582-25.91819-.22817-4.64293-5.3502-9.67369-5.65823-14.53336-.21675-3.65047,4.38057-7.08419,4.141-10.79169-1.55143-22.82675-3.49075-14.06417-4.92813-30.22882q-.22245-2.37852-.41066-4.55165c-.924-10.381-1.56284-16.872-1.56284-16.872l6.13733-38.68338,9.6395-60.73442-.74153-1.22063-.83274-.41066-50.844-25.16532-2.76064-7.07276a10.97881,10.97881,0,0,0-10.14143-6.94731l-33.4929-.13688a10.93117,10.93117,0,0,0-8.90946,4.52888l-9.069,12.55978Z" transform="translate(-206.59003 -163.87113)" fill="#3f3d56" /><path d="M533.40653,617.52479,525.8204,633.758l-5.179,11.08822-8.90939,46.646-4.46044,4.73414L503.45,679.467l-39.99772,8.88094c-1.31191-7.28951-.3512.24662-1.16117-7.75009.22817-.22817.46768-.45634.70727-.68451.63882-.59322,1.175-1.15218,1.1636-1.68831-.45633-27.58374.9126-74.52633,12.34311-102.96564a60.05328,60.05328,0,0,1,7.02709-13.1074c.22817-.308.44492-.61606.66167-.924,5.27034-7.3808,8.60136-14.64748,13.32415-19.81511v-.01142a.53028.53028,0,0,0,.07986-.07987.157.157,0,0,0,.04561-.03425l32.44341-17.20272,1.39177,39.10546.99247,28.10851Z" transform="translate(-206.59003 -163.87113)" fill="#3f3d56" /><path d="M650.3914,622.13549l9.476,20.275,3.30742,7.06091,8.90681,46.64162,4.44575,4.72264,3.83039-16.75524,1.7998-.36918,32.4585-6.72243,9.46058,30.04631a17.984,17.984,0,0,0-3.26122-22.50556c-.64606-.58457-1.18444-1.15373-1.16913-1.69211.53847-32.4431-1.446-91.68363-19.36733-116.06588-5.69179-7.73777-9.1068-15.44474-14.07562-20.82885-.0154-.0153-.0154-.0307-.03071-.0307L674.0814,526.1139l-.73836-1.21533-.83066-.41528Z" transform="translate(-206.59003 -163.87113)" fill="#3f3d56" /><circle id="a657ec4b-47ce-4d2a-9c58-81a811696ca9" data-name="Ellipse 5" cx="386.3965" cy="267.20052" r="44.55826" fill="#ffb6b6" /><path d="M653.21227,399.94791a3.75933,3.75933,0,0,0-2.69-1.19l.67-1.86a3.52769,3.52769,0,0,0-3.96-4.7l-2.44.47.23-1.63a3.53387,3.53387,0,0,0-4.73-3.82,3.76631,3.76631,0,0,1-3.24-.23,3.84647,3.84647,0,0,1-1.92-2.61005l-.85-4.1-.09-.22c-4.14-6.9-12.1-11.92-21.84-13.76-8.67005-1.65-17.56-.81-26.13-.02-3.4.32-7.24.68-10.44,2.64-2.72,1.68-5.02,5.04-4.55,8.43-8.45-2.59-17.51,2.58-22,9.1-5.32,7.76-6.19,17.48-6.33,25.08-.38,17.98,3.33,32.69,11,43.73.56.8.7,2.47,1.81,3.03l-.23-.37c1.24.62,2.5,1.62,2.03,2.69-1.35,3.08,7.62,9.89,13.94,12.14,11.53,4.11,26.86,3.76,37.64,2.28l.38-2.55c3.89-.53,6.63-1.54,7.4-3.12,1.36005-1.16,2.52-2.2,3.53-3.16l.01-.01c.02-.02.06-.05.08-.07,4.87-4.67,6-7.32995,6.51-11.37994.49-3.97-.38-8-1.27-11.63,18.74,2.9-7.38-19.96,10.08-24.38a5.434,5.434,0,0,1,.61-.15c.51-.12,1.02-.24,1.51-.38a26.44846,26.44846,0,0,0,6.72-2.87c4.88-2.97,6.49-6.91,9.01-11.35A3.42652,3.42652,0,0,0,653.21227,399.94791Z" transform="translate(-206.59003 -163.87113)" fill="#2f2e41" /><path d="M750.58227,625.3079c-.01,1.75-.03,4.2-.11,7.23q-.015.63-.03,1.29c-.13,5.57-.26,10.24-.47,15.43-.01.36-.02.71-.04,1.07-.28,7.24-.72,15.67-1.48,29.02-1.41,24.66-3.87,3.39-6.34,12.04-.12.43-.25.94-.37,1.54a27.91582,27.91582,0,0,1-1.88,6.33c-1.31.78-2.66,1.53-3.99,2.28-3.79,2.11-7.63995,4.13995-11.51995,6.07-2.18006,1.08-4.37,2.14-6.57,3.16-.35.16-.69.32-1.03.47a270.88715,270.88715,0,0,1-34.75,13.26c-2.32.7-4.63,1.38-6.97,2.01-2.44.68-4.88,1.32-7.35,1.92a266.8933,266.8933,0,0,1-56.09,7.59c-2.55.08-5.12.11-7.7.11-1.28,0-2.54-.01-3.82-.02-.39,0-.78-.01-1.17-.02-1.13-.03-2.3-.05-3.48-.08a266.66307,266.66307,0,0,1-67.35-10.83l-.93-.27c-1.44-.44-2.87-.87-4.3-1.33q-9.90006-3.135-19.51-7.02-7.335-2.955-14.5-6.34a.33861.33861,0,0,1-.12-.06c-1-.46-2.01-.94-3.01-1.43-.13-.07-.27-.14-.41-.21q-5.59506-2.73-11.07-5.72c-3.07-7.05005-7.39-8.4-10.07-14.6a25.87356,25.87356,0,0,1-1.68-5.74c0-.02-.01-.04-.01-.07.28,3.72-1.19-6.6-.01-.04-.01-.12-.02-.25-.03-.4-.03-.36-.06994-.8-.12994-1.35-3.43-33.49-3.21-71.79-4.7-103.35q-.15006-3.06-.31-5.86c-.03-.62-.07-1.23-.11005-1.83.07-.18.15-.37.24-.55a1.002,1.002,0,0,1,.07-.15,1.62294,1.62294,0,0,1,.1-.18c.02-.03.05-.07.07-.1a.91693.91693,0,0,1,.05-.1c.09-.14.19-.29.3-.43.05-.06.09-.11005.14-.16a.80824.80824,0,0,1,.12-.14.637.637,0,0,1,.11-.13c.04-.04.08-.09.13-.13995a.30159.30159,0,0,1,.08-.08,2.03313,2.03313,0,0,1,.26-.25,9.62387,9.62387,0,0,1,1.14-.9c.13995-.09.29-.18.43-.28a19.13528,19.13528,0,0,1,3.17-1.52c.38-.14.76-.27,1.17-.41.15-.04.29-.09.44-.14.22-.07.44-.14.67-.19,1.14-.34,2.37-.63,3.7-.9.16-.03.33-.06.5-.1.24-.05.49-.09.74-.13.34-.06.69-.12,1.04-.18,2.97-.47,6.34-.82,10.06-1.05q.525-.03,1.05-.06c.41-.02.82-.04,1.24-.06.35-.02.71-.03,1.07-.04.35-.02.71-.03,1.08-.04,1.01-.03,2.05-.06,3.11-.08,3.02-.06,6.2-.04,9.54.03,1.55.04,3.13.08,4.75.15.11005,0,.21.01.31.01,1.41.05,2.83.11,4.29.19,1.02.05,2.05.1,3.07995.16.97.06,1.95.12,2.94.19.77.04,1.54.1,2.32.15.66.05,1.32.1,1.98.14l.9.06c.49.04.98.07,1.48.12,1.1.09,2.2.18,3.32.27,1.11.1,2.24.2,3.37.3s2.27.21,3.41.32c.12.01.23.02.34.03,1.04.11005,2.08.21,3.13.32.24.02.49.04.73.07,1.0011.10058,2.02173.21832,3.032.32568.31006.03345.61847.06586.92944.09985.79139.08618,1.57154.16089,2.36847.25446,1.05.12,2.12006.23,3.16.37.81.09,1.62.18,2.43.28,1.27.15,2.56.31,3.85.48.49.06.98.12,1.47.19,3.68.46,7.4.97,11.18,1.5,5.73.81,11.55,1.69,17.41,2.64q8.80509,1.425,17.71,3.01c1.5.27,3,.54,4.51.82q1.02.19491,2.04.38995c1.16.21,2.32.43,3.48.65,1.16.22,2.32.44,3.48.67,1.38.27,2.77.54,4.15.81,9.09,1.8,18.12994,3.72,26.95,5.73,1.45.32995,2.9.67,4.34,1q4.32,1.005,8.56,2.04c.78.18,1.55.37,2.32.56,1.92.48,3.84.96,5.73,1.45l.33.09c1.39.34,2.75.69,4.11,1.05q4.815,1.26,9.47,2.55,3.09.855,6.11,1.73c3.01.87,5.96,1.75,8.83,2.64.71.22,1.42.44,2.12.65,2.1.65,4.17,1.31,6.18,1.97,1.6.52,3.16,1.05,4.7,1.58q2.31.795,4.53,1.59c.95.34,1.89.7,2.83,1.04,1.35.5,2.68,1,3.98,1.5.4.15.79.31,1.18.46.25.11.49.2.73.3.47.19.95.37,1.41.56.47.18.93.37,1.39.57.45.18.91.37,1.35.56.45.18.89.37,1.33.57.37.15.73.31,1.08.47.71.31,1.42.62,2.11.94.34.16.68.31,1.02.47l.78.36c.11.06.22.11.33.16.25.12.51.25.76.37.57995.27,1.15.56,1.71.83.75.38,1.48.76,2.18,1.13.71.37994,1.4.76,2.06,1.12994.11.06.21.12006.32.18006.15.07995.3.17.45.25.51.29,1,.59,1.49.87994.96.59,1.87,1.17,2.72,1.75.19.13.37.26.56.38.63.45,1.23.89,1.79,1.34,0,.01,0,.01.01.01.19.14.37.29.55.43.15.14.31.26.46.4.52.45,1,.87994,1.44,1.32a5.667,5.667,0,0,1,.42.43,1.20839,1.20839,0,0,1,.16.16c.2.2.38.4.55.6a.55257.55257,0,0,1,.07.09c.24.28.46.56.67.84.1.14.21.28.3.42.12.17.24.35.34.52.09.14.17.29.25.43006a7.2566,7.2566,0,0,1,.54,1.12994,5.2413,5.2413,0,0,1,.27.82A5.84442,5.84442,0,0,1,750.58227,625.3079Z" transform="translate(-206.59003 -163.87113)" fill="#2f2e41" /><path d="M750.58227,625.3079c-.01,1.75-.03,4.2-.11,7.23-.01.42-.03.85-.04,1.29-.1,4.25-.25,9.5-.46,15.43-.01.36-.02.71-.04,1.07-.28,7.24-.72,15.67-1.48,29.02-1.41,24.66-3.87,3.39-6.34,12.04-6.86-4.22-14.38-8.64-22.42-13.18q-2.175-1.23-4.39-2.47c-16.08-8.97-34.04-18.37006-52.79-27.68-.74-.37-1.49-.74-2.23-1.1-42.95-21.23-89.83-41.88-127.81-55.66-7.33-2.66-14.33-5.06-20.91-7.17005-13.86-4.43-25.84-7.53-35.06-8.87-9.6-1.4-16.23-.9-18.91,1.99q-.15006-3.06-.31-5.86-.06006-.93-.12-1.83c.06171-.16462.14191-.32172.21955-.48017.01111-.02313.019-.047.03045-.06982a1.002,1.002,0,0,1,.07-.15,1.62294,1.62294,0,0,1,.1-.18,1.05985,1.05985,0,0,1,.12-.2c.09-.14.19-.29.3-.43a3.48261,3.48261,0,0,1,.26-.30005.637.637,0,0,1,.11-.13c.04-.04.08-.09.13-.13995a.30159.30159,0,0,1,.08-.08,2.03313,2.03313,0,0,1,.26-.25,9.62387,9.62387,0,0,1,1.14-.9c.13995-.09.29-.18.43-.28a19.13528,19.13528,0,0,1,3.17-1.52c.38-.14.76-.27,1.17-.41.15-.04.29-.09.44-.14.22-.07.44-.14.67-.19,1.14-.34,2.37-.63,3.7-.9.4-.08.82-.16,1.24-.23.34-.06.69-.12,1.04-.18,2.97-.47,6.34-.82,10.06-1.05q.525-.03,1.05-.06c.41-.02.82-.04,1.24-.06.35-.02.71-.03,1.07-.04.35-.02.71-.03,1.08-.04,1.01-.03,2.05-.06,3.11-.08,3.02-.05,6.2-.03,9.54.04,1.55.03,3.13.08,4.75.15.1,0,.21.01.31.01,1.41.04,2.84.11,4.29.18,1.02.05,2.05.1,3.07995.16.97.06,1.95.12,2.94.19.77.04,1.54.1,2.32.15.66.05,1.32.1,1.98.14.79.06,1.58.12,2.38.18,1.1.09,2.2.18,3.32.27,1.11.1,2.24.2,3.37.3s2.27.21,3.41.32c.12.01.23.02.34.03,1.04.11005,2.08.21,3.13.32q8.73.885,17.97,2.07,5.52.705,11.18,1.51c5.73.81,11.55,1.69,17.41,2.63q8.80509,1.425,17.71,3.01c1.5.27,3,.54,4.51.82q2.76.50994,5.52,1.04c1.16.22,2.32.44,3.48.67,1.38.27,2.77.54,4.15.81,9.09,1.8,18.12994,3.72,26.95,5.73,1.45.32995,2.9.67,4.34,1q4.32,1.005,8.56,2.04c.78.19,1.55.38,2.32.57q2.895.72,5.73,1.44v.01c.11.02.22.05.33.08,1.38.35,2.75.7,4.11,1.06q4.815,1.26,9.47,2.54c2.06.57995,4.1,1.15,6.11,1.73,3.01.88,5.96,1.76,8.83,2.64.71.22,1.42.44,2.12.65q3.15.99,6.18,1.97c1.6.52,3.16,1.05,4.7,1.58q2.31.795,4.53,1.59c.96.34,1.9.69,2.83,1.03,1.36.5,2.68,1,3.98,1.51.4.15.79.31,1.18.46.73.28,1.44.57,2.14.86.47.18.93.37,1.39.57.45.18.91.37,1.35.56.45.18.89.37,1.33.57.37.15.73.31,1.08.47.71.31,1.42.62,2.11.94.34.16.68.31,1.02.47l.78.36c.11.06.22.11.33.16.85.4,1.67.8,2.47,1.2.75.38,1.48.76,2.18,1.13.83.43994,1.62.87,2.38,1.31.15.07995.3.17.45.25.51.29,1,.59,1.49.87994.96.59,1.87,1.17,2.72,1.75.84.58,1.62,1.15,2.35,1.72,0,.01,0,.01.01.01.35.28.69.56,1.01.83.52.45,1,.87994,1.44,1.32a5.667,5.667,0,0,1,.42.43,1.20839,1.20839,0,0,1,.16.16c.21.23.42.46.62006.69.24.28.46.56.67.84.1.14.21.28.3.42.12.17.24.35.34.52.09.14.17.29.25.43006a7.2566,7.2566,0,0,1,.54,1.12994,6.05312,6.05312,0,0,1,.27.82A5.84442,5.84442,0,0,1,750.58227,625.3079Z" transform="translate(-206.59003 -163.87113)" opacity="0.2" /></svg><svg xmlns="http://www.w3.org/2000/svg" width="888" height="710.80704" viewBox="0 0 888 710.80704" xmlns:xlink="http://www.w3.org/1999/xlink" role="img" artist="Katerina Limpitsouni" source="https://undraw.co/" x="1123.965" y="702.19476"><title>server_cluster</title><path d="M600.93555,699.40352a260.06372,260.06372,0,1,1,183.89355-76.1709A258.36518,258.36518,0,0,1,600.93555,699.40352Zm0-518.12891c-142.29688,0-258.06446,115.76758-258.06446,258.06494s115.76758,258.064,258.06446,258.064S859,581.63692,859,439.33955,743.23242,181.27461,600.93555,181.27461Z" transform="translate(-156 -94.59648)" fill="#ccc" /><rect x="469" y="509.90391" width="262" height="195" transform="translate(1051.40391 -87.19257) rotate(90)" fill="#2f2e41" /><rect x="313" y="373.80743" width="262" height="104" fill="#3f3d56" /><rect x="313" y="489.80743" width="262" height="104" fill="#3f3d56" /><rect x="313" y="605.80743" width="262" height="104" fill="#3f3d56" /><rect x="313" y="417.90372" width="262" height="16" fill="#6c63ff" /><rect x="313" y="533.90372" width="262" height="16" fill="#6c63ff" /><rect x="313" y="649.90372" width="262" height="16" fill="#6c63ff" /><circle cx="524" cy="388.80743" r="6" fill="#6c63ff" /><circle cx="545" cy="388.80743" r="6" fill="#6c63ff" /><circle cx="566" cy="388.80743" r="6" fill="#6c63ff" /><circle cx="524" cy="502.80743" r="6" fill="#6c63ff" /><circle cx="545" cy="502.80743" r="6" fill="#6c63ff" /><circle cx="566" cy="502.80743" r="6" fill="#6c63ff" /><circle cx="524" cy="616.80743" r="6" fill="#6c63ff" /><circle cx="545" cy="616.80743" r="6" fill="#6c63ff" /><circle cx="566" cy="616.80743" r="6" fill="#6c63ff" /><rect y="708.80704" width="888" height="2" fill="#3f3d56" /><path d="M397.8787,365.66116v185.9917a14.67525,14.67525,0,0,1-14.67227,14.67231H310.928a14.67656,14.67656,0,0,1-14.6784-14.67231V365.66116a14.67655,14.67655,0,0,1,14.6784-14.67228h8.76786a6.9778,6.9778,0,0,0,6.4551,9.60614h41.20843a6.97774,6.97774,0,0,0,6.45506-9.60614h9.392A14.67524,14.67524,0,0,1,397.8787,365.66116Z" transform="translate(-156 -94.59648)" fill="#e6e6e6" /><rect x="145.06414" y="291.91002" width="92" height="128" fill="#fff" /><rect x="171.18557" y="379.92719" width="36.71978" height="2.09827" fill="#e6e6e6" /><rect x="171.14869" y="387.63152" width="56.81724" height="2.09827" fill="#6c63ff" /><rect x="171.14869" y="394.89011" width="44.5883" height="2.09827" fill="#e6e6e6" /><rect x="171.14869" y="402.1487" width="26.22841" height="2.09827" fill="#e6e6e6" /><rect x="171.14869" y="409.40729" width="39.34262" height="2.09827" fill="#e6e6e6" /><rect x="154.53324" y="379.32379" width="4.19655" height="4.19655" fill="#e6e6e6" /><rect x="154.53324" y="386.58238" width="4.19655" height="4.19655" fill="#6c63ff" /><rect x="154.53324" y="393.84097" width="4.19655" height="4.19655" fill="#e6e6e6" /><rect x="154.53324" y="401.09956" width="4.19655" height="4.19655" fill="#e6e6e6" /><rect x="154.53324" y="408.35815" width="4.19655" height="4.19655" fill="#e6e6e6" /><rect x="172.75082" y="307.91002" width="36.99753" height="36.99753" fill="#e6e6e6" /><rect x="321.11058" y="0.13939" width="245.88383" height="157.47494" fill="#e6e6e6" /><rect x="339.64671" y="44.19534" width="203.86136" height="77.03517" fill="#fff" /><rect x="376.78939" y="57.54179" width="48.92684" height="2.79582" fill="#e6e6e6" /><rect x="376.74025" y="67.80733" width="75.70547" height="2.79582" fill="#6c63ff" /><rect x="376.74025" y="77.47895" width="59.41117" height="2.79582" fill="#e6e6e6" /><rect x="376.74025" y="87.15058" width="34.94775" height="2.79582" fill="#e6e6e6" /><rect x="376.74025" y="96.8222" width="52.42162" height="2.79582" fill="#e6e6e6" /><rect x="354.60119" y="56.7378" width="5.59164" height="5.59164" fill="#e6e6e6" /><rect x="354.60119" y="66.40942" width="5.59164" height="5.59164" fill="#6c63ff" /><rect x="354.60119" y="76.08104" width="5.59164" height="5.59164" fill="#e6e6e6" /><rect x="354.60119" y="85.75267" width="5.59164" height="5.59164" fill="#e6e6e6" /><rect x="354.60119" y="95.42429" width="5.59164" height="5.59164" fill="#e6e6e6" /><rect x="483.44507" y="53.8475" width="50.05873" height="50.05873" fill="#e6e6e6" /><rect x="321.00559" width="245.88383" height="10.44604" fill="#6c63ff" /><circle cx="328.76825" cy="5.34057" r="2.09686" fill="#fff" /><circle cx="336.11718" cy="5.34057" r="2.09686" fill="#fff" /><circle cx="343.46611" cy="5.34057" r="2.09686" fill="#fff" /><rect x="671.64772" y="294.80743" width="60" height="31" fill="#e6e6e6" /><rect x="671.64772" y="405.80743" width="60" height="31" fill="#e6e6e6" /><circle cx="701.64772" cy="365.80743" r="50" fill="#e6e6e6" /><circle cx="701.64772" cy="365.80743" r="39" fill="#fff" /><rect x="688.87659" y="355.12175" width="30.24683" height="1.72839" fill="#e2e2e2" /><rect x="688.84621" y="361.46796" width="46.80151" height="1.72839" fill="#6c63ff" /><rect x="688.84621" y="367.44701" width="36.72829" height="1.72839" fill="#e2e2e2" /><rect x="688.84621" y="373.42605" width="21.60488" height="1.72839" fill="#e2e2e2" /><rect x="688.84621" y="379.4051" width="32.40732" height="1.72839" fill="#e2e2e2" /><rect x="675.15972" y="354.62472" width="3.45678" height="3.45678" fill="#e2e2e2" /><rect x="675.15972" y="360.60376" width="3.45678" height="3.45678" fill="#6c63ff" /><rect x="675.15972" y="366.58281" width="3.45678" height="3.45678" fill="#e2e2e2" /><rect x="675.15972" y="372.56186" width="3.45678" height="3.45678" fill="#e2e2e2" /><rect x="675.15972" y="378.54091" width="3.45678" height="3.45678" fill="#e2e2e2" /></svg></svg>