<svg xmlns="http://www.w3.org/2000/svg" viewBox="0 0 1522.4688 1320.3068">
  <svg xmlns="http://www.w3.org/2000/svg" width="788.6063" height="505.46457" viewBox="0 0 788.6063 505.46457" xmlns:xlink="http://www.w3.org/1999/xlink" role="img" artist="Katerina Limpitsouni" source="https://undraw.co/" x="0" y="98.3651">
    <path d="M942.33387,700.8888c-10.21678-6.83513-15.36154-19.838-15.56457-32.1287-.06808-4.12168.97214-8.90006,4.6644-10.73313a6.40929,6.40929,0,0,1,9.17367,6.78517A62.0452,62.0452,0,0,1,945.908,653.2958c1.82517-3.08817,4.388-6.30229,7.96315-6.59584,4.14764-.34055,7.61254,3.6882,8.20046,7.80806s-.91111,8.22009-2.38458,12.11211a10.8304,10.8304,0,0,1,17.15884-6.08445c4.05614,3.13127,5.39282,8.89413,4.37235,13.91565s-4.01718,9.4151-7.33124,13.32331c-3.886,4.5827-8.38562,8.77056-13.773,11.43105s-11.75774,3.67806-17.48911,1.87429Z" transform="translate(-205.69685 -197.26772)" fill="#f2f2f2"/>
    <path d="M802.59173,536.29076a10.74267,10.74267,0,0,0,3.84155-16.01843l25.033-121.54-23.36007-.30784-17.384,119.99816a10.80091,10.80091,0,0,0,11.86954,17.86816Z" transform="translate(-205.69685 -197.26772)" fill="#ffb8b8"/>
    <path d="M916.376,529.97948a10.74267,10.74267,0,0,0-.89739-16.44817L904.72644,389.90678,882.253,396.289l17.64128,119.96061A10.80091,10.80091,0,0,0,916.376,529.97948Z" transform="translate(-205.69685 -197.26772)" fill="#ffb8b8"/>
    <polygon points="638.591 492.157 626.331 492.156 620.499 444.868 638.593 444.869 638.591 492.157" fill="#ffb8b8"/>
    <path d="M617.57428,488.65334h23.64384a0,0,0,0,1,0,0v14.88687a0,0,0,0,1,0,0H602.6874a0,0,0,0,1,0,0v0A14.88688,14.88688,0,0,1,617.57428,488.65334Z" fill="#2f2e41"/>
    <polygon points="693.591 492.157 681.331 492.156 675.499 444.868 693.593 444.869 693.591 492.157" fill="#ffb8b8"/>
    <path d="M672.57428,488.65334h23.64384a0,0,0,0,1,0,0v14.88687a0,0,0,0,1,0,0H657.6874a0,0,0,0,1,0,0v0A14.88688,14.88688,0,0,1,672.57428,488.65334Z" fill="#2f2e41"/>
    <circle cx="641.76772" cy="129.73228" r="24.56103" fill="#ffb8b8"/>
    <path d="M881.99281,659.58678a4.33406,4.33406,0,0,1-4.23108-3.48972l-16.604-85.90651a3.34938,3.34938,0,0,0-6.61752.26635l-9.29766,83.67754a4.28546,4.28546,0,0,1-4.08458,3.82523l-13.94509.63365a4.23451,4.23451,0,0,1-3.10607-1.1271,4.27755,4.27755,0,0,1-1.39229-2.99626l-5.347-129.25883a4.28031,4.28031,0,0,1,1.50794-3.45421l3.092-2.63831a4.31148,4.31148,0,0,1,2.79486-1.02991h72.27871a4.31139,4.31139,0,0,1,4.30654,4.30654V654.6251a4.29851,4.29851,0,0,1-4.11939,4.3028l-15.05116.65514C882.11547,659.58491,882.054,659.58678,881.99281,659.58678Z" transform="translate(-205.69685 -197.26772)" fill="#2f2e41"/>
    <path d="M844.97576,536.89523c-11.68574.00094-21.98644-3.11308-27.18643-12.19438a4.38672,4.38672,0,0,1-.586-2.472l6.53388-99.87659a3.34931,3.34931,0,0,0-.679-2.25047l-18.33387-24.03831a4.305,4.305,0,0,1,.82359-6.043l27.50186-20.8355a3.36648,3.36648,0,0,0,1.19813-1.74953l.80117-2.80374a4.29778,4.29778,0,0,1,3.97523-3.12056l20.1806-.77664a4.34761,4.34761,0,0,1,3.52851,1.614l2.14766,2.68411a3.3412,3.3412,0,0,0,.996.84019l33.74952,18.65046a4.31507,4.31507,0,0,1,2.22336,3.72336l.0007.05982-.01378.057c-7.86729,32.80279-7.42477,74.26445,1.39229,130.485a4.30494,4.30494,0,0,1-2.58084,4.06355C893.34374,526.07561,866.75636,536.89523,844.97576,536.89523Z" transform="translate(-205.69685 -197.26772)" fill="#6c63ff"/>
    <path d="M824.42414,433.87191H801.566a4.30071,4.30071,0,0,1-4.29977-4.55047c.34019-5.82336,1.01122-16.89812,1.683-25.63176.96682-12.56822,13.28153-18.7542,13.4056-18.81588l.24089-.11776,8.314,5.27757,7.73738,38.68783a4.30686,4.30686,0,0,1-4.22289,5.15047Z" transform="translate(-205.69685 -197.26772)" fill="#6c63ff"/>
    <path d="M887.06009,431.73827a4.31245,4.31245,0,0,1-4.26028-4.7757l4.21846-38.81027,8.15-5.96916.18551.02056c.08715.01029,8.76939,1.0944,12.65888,10.81776,2.76962,6.92429,7,19.72149,9.27523,26.73363a4.30162,4.30162,0,0,1-3.08084,5.50654l-26.10817,6.35047A4.3564,4.3564,0,0,1,887.06009,431.73827Z" transform="translate(-205.69685 -197.26772)" fill="#6c63ff"/>
    <path d="M848.02362,351.73228c5.25293-8.31094-1.30517-31.189-15.5957-31.78592-3.29932-.13781-4.56638-4.93874-5.68754-8.04446a12.38934,12.38934,0,0,1,1.61042-10.77928,20.33678,20.33678,0,0,1,8.67558-7.0083,30.10675,30.10675,0,1,1,16.86118,57.15692Z" transform="translate(-205.69685 -197.26772)" fill="#2f2e41"/>
    <path d="M699.69685,197.26772h-487a7.00778,7.00778,0,0,0-7,7v330a7.00779,7.00779,0,0,0,7,7h487a7.00779,7.00779,0,0,0,7-7v-330A7.00778,7.00778,0,0,0,699.69685,197.26772Zm5,337a5.002,5.002,0,0,1-5,5h-487a5.002,5.002,0,0,1-5-5v-330a5.002,5.002,0,0,1,5-5h487a5.002,5.002,0,0,1,5,5Z" transform="translate(-205.69685 -197.26772)" fill="#3f3d56"/>
    <rect x="1" y="28.03998" width="499" height="2" fill="#3f3d56"/>
    <circle cx="18" cy="15" r="6" fill="#3f3d56"/>
    <circle cx="35.25" cy="15" r="6" fill="#3f3d56"/>
    <circle cx="52.5" cy="15" r="6" fill="#3f3d56"/>
    <path d="M609.52362,293.73228h-310a15.5,15.5,0,0,1,0-31h310a15.5,15.5,0,0,1,0,31Zm-310-29a13.5,13.5,0,0,0,0,27h310a13.5,13.5,0,0,0,0-27Z" transform="translate(-205.69685 -197.26772)" fill="#3f3d56"/>
    <path d="M379.52362,372.73228h-60a15.5,15.5,0,0,1,0-31h60a15.5,15.5,0,0,1,0,31Zm-60-29a13.5,13.5,0,0,0,0,27h60a13.5,13.5,0,0,0,0-27Z" transform="translate(-205.69685 -197.26772)" fill="#3f3d56"/>
    <path d="M379.52362,424.73228h-60a15.5,15.5,0,0,1,0-31h60a15.5,15.5,0,0,1,0,31Zm-60-29a13.5,13.5,0,0,0,0,27h60a13.5,13.5,0,0,0,0-27Z" transform="translate(-205.69685 -197.26772)" fill="#3f3d56"/>
    <path d="M379.52362,476.73228h-60a15.5,15.5,0,0,1,0-31h60a15.5,15.5,0,0,1,0,31Zm-60-29a13.5,13.5,0,0,0,0,27h60a13.5,13.5,0,0,0,0-27Z" transform="translate(-205.69685 -197.26772)" fill="#3f3d56"/>
    <path d="M388.52362,285.23228h-84a7,7,0,0,1,0-14h84a7,7,0,0,1,0,14Z" transform="translate(-205.69685 -197.26772)" fill="#6c63ff"/>
    <path d="M599.02362,281.73228a7,7,0,1,1,7-7A7.00786,7.00786,0,0,1,599.02362,281.73228Zm0-12a5,5,0,1,0,5,5A5.00573,5.00573,0,0,0,599.02362,269.73228Z" transform="translate(-205.69685 -197.26772)" fill="#3f3d56"/>
    <path d="M609.85224,288.0648a.99676.99676,0,0,1-.707-.293l-7.02612-7.02636a.99989.99989,0,1,1,1.41406-1.41407l7.02613,7.02637a1,1,0,0,1-.707,1.707Z" transform="translate(-205.69685 -197.26772)" fill="#3f3d56"/>
    <path d="M595.02362,366.73228h-34a9.5,9.5,0,0,1,0-19h34a9.5,9.5,0,0,1,0,19Z" transform="translate(-205.69685 -197.26772)" fill="#6c63ff"/>
    <path d="M595.02362,418.73228h-34a9.5,9.5,0,0,1,0-19h34a9.5,9.5,0,0,1,0,19Z" transform="translate(-205.69685 -197.26772)" fill="#6c63ff"/>
    <path d="M595.02362,470.73228h-34a9.5,9.5,0,0,1,0-19h34a9.5,9.5,0,0,1,0,19Z" transform="translate(-205.69685 -197.26772)" fill="#6c63ff"/>
    <path d="M993.30315,702.73228h-248a1,1,0,0,1,0-2h248a1,1,0,0,1,0,2Z" transform="translate(-205.69685 -197.26772)" fill="#3f3d56"/>
  </svg>
  <svg xmlns="http://www.w3.org/2000/svg" width="733.86247" height="702.19479" viewBox="0 0 733.86247 702.19479" xmlns:xlink="http://www.w3.org/1999/xlink" role="img" artist="Katerina Limpitsouni" source="https://undraw.co/" x="788.6063" y="0">
    <title>cloud_files</title>
    <path d="M851.60079,284.65378H646.84415v-1.07216a3.14805,3.14805,0,0,0-3.14805-3.14805H557.14758a3.14805,3.14805,0,0,0-3.148,3.14805v1.07216H348.39885A13.85024,13.85024,0,0,0,334.54861,298.504V578.87887a13.85024,13.85024,0,0,0,13.85024,13.85024H851.60073a13.8503,13.8503,0,0,0,13.8503-13.85029V298.504A13.85024,13.85024,0,0,0,851.60079,284.65378Z" transform="translate(-233.06876 -98.90261)" fill="#3f3d56"/>
    <path d="M359.41357,314.13086a1.29773,1.29773,0,0,0-1.29589,1.29639V581.36914a1.29732,1.29732,0,0,0,1.29589,1.2959H840.58594a1.297,1.297,0,0,0,1.2959-1.2959V315.42725a1.29742,1.29742,0,0,0-1.2959-1.29639Z" transform="translate(-233.06876 -98.90261)" fill="#6c63ff"/>
    <circle cx="366.50903" cy="197.56776" r="5.06425" fill="#6c63ff"/>
    <path d="M874.67264,573.83276H826.48442v-4.97648c0-.27332-.30819-.49487-.6884-.49487H809.27435c-.38021,0-.68841.22155-.68841.49487v4.97648h-10.326v-4.97648c0-.27332-.3082-.49487-.68841-.49487H781.04982c-.38021,0-.6884.22155-.6884.49487v4.97648H770.03537v-4.97648c0-.27332-.30819-.49487-.6884-.49487H752.8253c-.38021,0-.68841.22155-.68841.49487v4.97648h-10.326v-4.97648c0-.27332-.3082-.49487-.68841-.49487H724.60077c-.38021,0-.6884.22155-.6884.49487v4.97648H713.58632v-4.97648c0-.27332-.30819-.49487-.6884-.49487H696.37625c-.38021,0-.68841.22155-.68841.49487v4.97648h-10.326v-4.97648c0-.27332-.3082-.49487-.68841-.49487H668.15172c-.38021,0-.6884.22155-.6884.49487v4.97648H657.13727v-4.97648c0-.27332-.30819-.49487-.6884-.49487H527.0291c-.38021,0-.68841.22155-.68841.49487v4.97648h-10.326v-4.97648c0-.27332-.3082-.49487-.68841-.49487H498.80457c-.38021,0-.6884.22155-.6884.49487v4.97648H487.79012v-4.97648c0-.27332-.30819-.49487-.6884-.49487H470.58005c-.38021,0-.68841.22155-.68841.49487v4.97648h-10.326v-4.97648c0-.27332-.3082-.49487-.68841-.49487H442.35552c-.38021,0-.6884.22155-.6884.49487v4.97648H431.34107v-4.97648c0-.27332-.30819-.49487-.6884-.49487H414.131c-.38021,0-.68841.22155-.68841.49487v4.97648h-10.326v-4.97648c0-.27332-.3082-.49487-.68841-.49487H385.90647c-.38021,0-.6884.22155-.6884.49487v4.97648H374.892v-4.97648c0-.27332-.30819-.49487-.6884-.49487H357.68195c-.38021,0-.68841.22155-.68841.49487v4.97648H325.327c-9.12466,0-16.52167,5.31743-16.52167,11.8768V591.08c0,6.55934,7.397,11.87677,16.52167,11.87677H874.67264c9.12466,0,16.52167-5.31743,16.52167-11.87677v-5.37041C891.19431,579.15019,883.7973,573.83276,874.67264,573.83276Z" transform="translate(-233.06876 -98.90261)" fill="#3f3d56"/>
    <path d="M543.97808,426.01694H401.75433a1.11987,1.11987,0,1,1,0-2.23974H543.97808a1.11987,1.11987,0,1,1,0,2.23974Z" transform="translate(-233.06876 -98.90261)" fill="#f2f2f2"/>
    <path d="M543.97808,450.65413H401.75433a1.11987,1.11987,0,1,1,0-2.23974H543.97808a1.11987,1.11987,0,1,1,0,2.23974Z" transform="translate(-233.06876 -98.90261)" fill="#f2f2f2"/>
    <path d="M543.97808,475.29132H401.75433a1.11988,1.11988,0,1,1,0-2.23975H543.97808a1.11988,1.11988,0,1,1,0,2.23975Z" transform="translate(-233.06876 -98.90261)" fill="#f2f2f2"/>
    <rect x="373.06222" y="262.72169" width="182.53915" height="175.81992" rx="3.35962" fill="#fff"/>
    <path d="M642.683,454.67371a45.00606,45.00606,0,0,1,88.30268-9.48886c.54524-.01956,1.09-.04147,1.64-.04147a17.66745,17.66745,0,0,1,5.51476.93823c22.387,7.35112,16.49195,40.7751-7.07106,40.7751H673.1604a30.44228,30.44228,0,0,1-30.5093-31.51923Q642.66463,455.0061,642.683,454.67371Z" transform="translate(-233.06876 -98.90261)" fill="#6c63ff"/>
    <polygon points="462.397 355.07 462.397 336.649 452.478 336.649 452.478 355.07 444.559 355.07 450.998 366.224 457.438 377.377 463.877 366.224 470.316 355.07 462.397 355.07" fill="#fff"/>
  </svg>
  <svg xmlns="http://www.w3.org/2000/svg" width="799.031" height="618.112" viewBox="0 0 799.031 618.112" xmlns:xlink="http://www.w3.org/1999/xlink" role="img" artist="Katerina Limpitsouni" source="https://undraw.co/" x="7.609436" y="702.19476">
    <g id="Group_301" data-name="Group 301" transform="translate(-560 -231.001)">
      <path id="Path_782-1795" data-name="Path 782" d="M15.18,488.763c0,.872.478,1.573,1.073,1.573h535.1c.6,0,1.073-.7,1.073-1.573s-.478-1.573-1.073-1.573H16.253C15.658,487.191,15.18,487.891,15.18,488.763Z" transform="translate(675.48 358.777)" fill="#ccc"/>
      <rect id="Rectangle_253" data-name="Rectangle 253" width="19.105" height="3.371" transform="translate(865.162 842.355)" fill="#b6b3c5"/>
      <rect id="Rectangle_254" data-name="Rectangle 254" width="19.105" height="3.371" transform="translate(1034.295 842.916)" fill="#b6b3c5"/>
      <path id="Path_783-1796" data-name="Path 783" d="M352.955,370.945a27.529,27.529,0,0,1-54.321,0H229.146V521.536h193.3V370.945H352.955Z" transform="translate(633.721 321.379)" fill="#d6d6e3"/>
      <rect id="Rectangle_255" data-name="Rectangle 255" width="193.296" height="5.242" transform="translate(863.43 830.984)" fill="#090814"/>
      <path id="Path_784-1797" data-name="Path 784" d="M788.255,487.17H10.776A10.788,10.788,0,0,1,0,476.394V32.688A10.788,10.788,0,0,1,10.776,21.911H788.255a10.789,10.789,0,0,1,10.776,10.776V476.394a10.789,10.789,0,0,1-10.776,10.776Z" transform="translate(560 209.09)" fill="#090814"/>
      <rect id="Rectangle_256" data-name="Rectangle 256" width="760.822" height="429.297" transform="translate(579.547 248.98)" fill="#fff"/>
      <rect id="Rectangle_778" data-name="Rectangle 778" width="405.085" height="245.866" rx="8" transform="translate(852.439 329.557)" fill="#f2f2f2"/>
      <rect id="Rectangle_779" data-name="Rectangle 779" width="388.981" height="230.626" transform="translate(860 336.898)" fill="#fff"/>
      <rect id="Rectangle_774" data-name="Rectangle 774" width="149.174" height="113.965" rx="8" transform="translate(662.881 329.557)" fill="#f2f2f2"/>
      <rect id="Rectangle_775" data-name="Rectangle 775" width="134.349" height="102.639" transform="translate(670.293 335.221)" fill="#fff"/>
      <rect id="Rectangle_776" data-name="Rectangle 776" width="149.174" height="113.965" rx="8" transform="translate(662.881 461.457)" fill="#f2f2f2"/>
      <rect id="Rectangle_777" data-name="Rectangle 777" width="134.349" height="102.639" transform="translate(670.293 467.121)" fill="#fff"/>
      <g id="Group_299" data-name="Group 299" transform="translate(20616.807 -22581.398)">
        <path id="Path_5157-1798" data-name="Path 5157" d="M492.191,209.052H445.2a6.016,6.016,0,0,0-6.009,6.009v55.174a6.016,6.016,0,0,0,6.009,6.009h46.989a6.016,6.016,0,0,0,6.009-6.009V215.061A6.016,6.016,0,0,0,492.191,209.052Z" transform="translate(-20352.984 22721.934)" fill="#e6e6e6"/>
        <path id="Path_5158-1799" data-name="Path 5158" d="M504.315,222.906H457.326a4.284,4.284,0,0,0-4.279,4.279v55.174a4.284,4.284,0,0,0,4.279,4.279h46.989a4.284,4.284,0,0,0,4.279-4.279V227.185A4.284,4.284,0,0,0,504.315,222.906Z" transform="translate(-20365.107 22709.809)" fill="#fff"/>
        <circle id="Ellipse_883" data-name="Ellipse 883" cx="10.969" cy="10.969" r="10.969" transform="translate(-19866.826 22982.953)" fill="#6c63ff"/>
        <path id="Path_5159-1800" data-name="Path 5159" d="M861.621,664.862h-3.815v-3.815a1.431,1.431,0,0,0-2.862,0v3.815h-3.815a1.431,1.431,0,0,0,0,2.862h3.815v3.815a1.431,1.431,0,0,0,2.862,0v-3.815h3.815a1.431,1.431,0,0,0,0-2.862Z" transform="translate(-20712.232 22327.629)" fill="#fff"/>
        <path id="Path_5160-1801" data-name="Path 5160" d="M633.447,451.689H609.686a1,1,0,1,1,0-2h23.762a1,1,0,1,1,0,2Z" transform="translate(-20501.313 22511.344)" fill="#e6e6e6"/>
        <path id="Path_5161-1802" data-name="Path 5161" d="M637.575,478.736h-27.89a1,1,0,1,1,0-2h27.89a1,1,0,0,1,0,2Z" transform="translate(-20501.313 22487.674)" fill="#e6e6e6"/>
        <path id="Path_5162-1803" data-name="Path 5162" d="M633.447,572.9H609.685a1,1,0,1,1,0-2h23.762a1,1,0,1,1,0,2Z" transform="translate(-20501.313 22405.266)" fill="#e6e6e6"/>
        <path id="Path_5163-1804" data-name="Path 5163" d="M637.575,599.95h-27.89a1,1,0,1,1,0-2h27.89a1,1,0,1,1,0,2Z" transform="translate(-20501.313 22381.596)" fill="#e6e6e6"/>
        <path id="Path_5164-1805" data-name="Path 5164" d="M511.77,445.854h-8.409a.48.48,0,0,1-.48-.48v-7.485a.48.48,0,0,1,.48-.48h8.409a.48.48,0,0,1,.48.48v7.485A.48.48,0,0,1,511.77,445.854Z" transform="translate(-20408.721 22522.09)" fill="#e6e6e6"/>
        <path id="Path_5165-1806" data-name="Path 5165" d="M511.77,567.067h-8.409a.48.48,0,0,1-.48-.48V559.1a.48.48,0,0,1,.48-.48h8.409a.48.48,0,0,1,.48.48v7.485A.48.48,0,0,1,511.77,567.067Z" transform="translate(-20408.721 22416.01)" fill="#e6e6e6"/>
        <path id="Path_5166-1807" data-name="Path 5166" d="M677.415,316.754H659.9a1,1,0,1,1,0-2h17.519a1,1,0,1,1,0,2Z" transform="translate(-20545.256 22629.43)" fill="#6c63ff"/>
        <path id="Path_5167-1808" data-name="Path 5167" d="M681.543,343.8H659.9a1,1,0,0,1,0-2h21.646a1,1,0,0,1,0,2Z" transform="translate(-20545.256 22605.76)" fill="#6c63ff"/>
        <path id="Path_5168-1809" data-name="Path 5168" d="M519.3,295.539H503.15a.48.48,0,0,1-.48-.48v-12.6a.48.48,0,0,1,.48-.48H519.3a.48.48,0,0,1,.48.48v12.6a.48.48,0,0,1-.48.48Z" transform="translate(-20408.535 22658.115)" fill="#6c63ff"/>
      </g>
      <g id="Group_300" data-name="Group 300" transform="translate(21087 -22304.855)">
        <path id="Path_5172-1810" data-name="Path 5172" d="M453.631,374.879H350.963A4.881,4.881,0,0,1,346.088,370V230.628a4.881,4.881,0,0,1,4.875-4.875H453.631a4.881,4.881,0,0,1,4.875,4.875V370A4.881,4.881,0,0,1,453.631,374.879Z" transform="translate(-20430.518 22438.643)" fill="#f2f2f2"/>
        <path id="Path_5174-1811" data-name="Path 5174" d="M442.455,381.679a1.275,1.275,0,0,0-.627.22,18.736,18.736,0,0,0,2.81-.39Z" transform="translate(-20492.504 22337.795)" fill="#2f2e41"/>
        <path id="Path_5175-1812" data-name="Path 5175" d="M402.336,273.083a19.589,19.589,0,0,0-9.772,36.565,19.262,19.262,0,0,0,3.113,1.449l.183.063a19.48,19.48,0,0,0,6.476,1.1c.427,0,.853-.014,1.273-.046a19.272,19.272,0,0,0,2.887-.4c.532-.116,1.054-.254,1.548-.405.12-.035.233-.07.356-.109a19.591,19.591,0,0,0-6.064-38.219ZM413.7,307.346a18.574,18.574,0,0,1-5.623,2.965l-.335.106c-.469.145-.962.271-1.47.381a18.063,18.063,0,0,1-2.732.381c-.4.028-.8.042-1.206.042a18.523,18.523,0,0,1-6.131-1.04l-.173-.06a18.061,18.061,0,0,1-3.088-1.452,18.535,18.535,0,1,1,20.757-1.322Z" transform="translate(-20454.254 22407.998)" fill="#ccc"/>
        <path id="Path_5178-1813" data-name="Path 5178" d="M537.188,319.991H508.137a2.3,2.3,0,0,1,0-4.6h29.051a2.3,2.3,0,1,1,0,4.6Z" transform="translate(-20533.949 22380.602)" fill="#e6e6e6"/>
        <path id="Path_5179-1814" data-name="Path 5179" d="M546.668,341.994H508.137a2.3,2.3,0,1,1,0-4.6h38.532a2.3,2.3,0,0,1,0,4.6Z" transform="translate(-20533.949 22366.355)" fill="#e6e6e6"/>
        <path id="Path_5180-1815" data-name="Path 5180" d="M457.537,426.383H385.182a2.3,2.3,0,1,1,0-4.6h72.355a2.3,2.3,0,1,1,0,4.6Z" transform="translate(-20454.342 22311.719)" fill="#e6e6e6"/>
        <path id="Path_5181-1816" data-name="Path 5181" d="M467.017,448.386H385.182a2.3,2.3,0,0,1,0-4.6h81.836a2.3,2.3,0,0,1,0,4.6Z" transform="translate(-20454.342 22297.471)" fill="#e6e6e6"/>
        <path id="Path_5186-1817" data-name="Path 5186" d="M557.181,299.765a4.277,4.277,0,0,0-2.368-4.3l-79.124-38.672a4.266,4.266,0,0,0-5.706,1.957v0L440.3,319.471a4.273,4.273,0,0,0,1.96,5.708l79.124,38.672a4.273,4.273,0,0,0,5.708-1.96l29.677-60.719A4.237,4.237,0,0,0,557.181,299.765Z" transform="translate(-20491.238 22418.824)" fill="#fff"/>
        <path id="Path_5187-1818" data-name="Path 5187" d="M557.181,299.765a4.277,4.277,0,0,0-2.368-4.3l-79.124-38.672a4.266,4.266,0,0,0-5.706,1.957v0L440.3,319.471a4.273,4.273,0,0,0,1.96,5.708l79.124,38.672a4.273,4.273,0,0,0,5.708-1.96l29.677-60.719A4.237,4.237,0,0,0,557.181,299.765ZM526.645,361.67a3.77,3.77,0,0,1-5.036,1.729l-79.124-38.672a3.77,3.77,0,0,1-1.729-5.036l29.676-60.719a3.77,3.77,0,0,1,5.036-1.729l79.124,38.672a3.77,3.77,0,0,1,1.729,5.036Z" transform="translate(-20491.238 22418.824)" fill="#3f3d56"/>
        <path id="Path_5188-1819" data-name="Path 5188" d="M573.762,319.572l-20.722,42.4a1.188,1.188,0,0,1-1.588.546h0l-71.974-35.178a1,1,0,0,1-.147-.087,1.187,1.187,0,0,1-.4-1.5l20.722-42.4a1.188,1.188,0,0,1,1.588-.546h0l71.974,35.178a1.188,1.188,0,0,1,.546,1.588h0Z" transform="translate(-20516.453 22401.781)" fill="#e6e6e6"/>
        <circle id="Ellipse_885" data-name="Ellipse 885" cx="10.423" cy="10.423" r="10.423" transform="translate(-20016.301 22698.352)" fill="#6c63ff"/>
        <path id="Path_5189-1820" data-name="Path 5189" d="M527.525,382.638l-45.94-22.453a1.044,1.044,0,0,1-.165-.1l40.122-27.016a1.693,1.693,0,0,1,2.648,1.294l2.238,32.383.108,1.55Z" transform="translate(-20518.141 22369.352)" fill="#090814"/>
        <path id="Path_5190-1821" data-name="Path 5190" d="M372.243,301.678l-15.685-7.666,13.166-7.421.948-.534.474-.268.108,1.55Z" transform="translate(-20362.857 22450.311)" opacity="0.2" style="isolation: isolate"/>
        <path id="Path_5191-1822" data-name="Path 5191" d="M611.783,441.206l-39.734-19.42,13.166-7.421.948-.535,17.157-9.671a2.26,2.26,0,0,1,3.1,1.293,2.026,2.026,0,0,1,.056.251Z" transform="translate(-20576.818 22323.283)" fill="#090814"/>
        <path id="Path_5201-1823" data-name="Path 5201" d="M396.749,519.447H222.785a11.647,11.647,0,0,1-11.634-11.634V412.276a11.647,11.647,0,0,1,11.634-11.634h21.329a11.608,11.608,0,0,1,7.825,3.025l23.13,16.517a8.173,8.173,0,0,0,5.52,2.14H397.83a11.634,11.634,0,0,1,11.633,11.8l-1.08,73.856A11.683,11.683,0,0,1,396.749,519.447Z" transform="translate(-20343.152 22325.408)" fill="#6c63ff"/>
        <path id="Path_5202-1824" data-name="Path 5202" d="M692.875,251.407h.019a12.628,12.628,0,0,0,.282-25.2.289.289,0,0,0-.311.284l-.276,24.628a.289.289,0,0,0,.286.292Z" transform="translate(-20744.109 22461.883)" fill="#6c63ff"/>
        <path id="Path_5203-1825" data-name="Path 5203" d="M660.012,237.433a.372.372,0,0,1,.261.111l8.478,8.671a.367.367,0,0,1,.106.263l-.132,11.784a.366.366,0,0,1-.12.268.372.372,0,0,1-.28.1,12.71,12.71,0,0,1-8.6-21.069.372.372,0,0,1,.269-.126Z" transform="translate(-20721.148 22454.725)" fill="#e6e6e6"/>
        <path id="Path_5204-1826" data-name="Path 5204" d="M675.977,225.927a.373.373,0,0,1,.254.1.367.367,0,0,1,.114.271l-.119,10.633a.37.37,0,0,1-.635.255l-7.4-7.566a.371.371,0,0,1,.02-.537,12.737,12.737,0,0,1,7.742-3.158Z" transform="translate(-20728.494 22462.059)" fill="#090814"/>
      </g>
      <path id="Path_5214-1827" data-name="Path 5214" d="M531.077,446.528c-8.7,0-15.785-7.522-15.785-16.768s7.081-16.768,15.785-16.768,15.785,7.522,15.785,16.768S539.781,446.528,531.077,446.528Zm0-29.3c-6.368,0-11.548,5.621-11.548,12.531s5.18,12.531,11.548,12.531,11.548-5.622,11.548-12.531S537.444,417.229,531.077,417.229Z" transform="translate(206.393 74.07)" fill="#d6d6e3"/>
      <path id="Path_5215-1828" data-name="Path 5215" d="M536.34,493.492h-29.9a9.955,9.955,0,0,1-9.944-9.943V454.224a6.816,6.816,0,0,1,6.808-6.808h36.168a6.815,6.815,0,0,1,6.808,6.808v29.324A9.955,9.955,0,0,1,536.34,493.492Z" transform="translate(216.076 56.328)" fill="#6c63ff"/>
      <path id="Path_5216-1829" data-name="Path 5216" d="M547.493,475.639a5.826,5.826,0,1,0-8.474,5.185v9.115h5.3v-9.115A5.821,5.821,0,0,0,547.493,475.639Z" transform="translate(195.801 44.787)" fill="#fff"/>
    </g>
  </svg>
  <svg xmlns="http://www.w3.org/2000/svg" width="693" height="528" viewBox="0 0 693 528" xmlns:xlink="http://www.w3.org/1999/xlink" role="img" artist="Katerina Limpitsouni" source="https://undraw.co/" x="821.8593" y="747.25073">
    <path d="M946.5,469.5V691.31A22.71737,22.71737,0,0,1,923.81,714H753.67l1.58-2L944.5,472.04Z" transform="translate(-253.5 -186)" fill="#f2f2f2"/>
    <path d="M524.3118,391.368H328.943a6.036,6.036,0,0,0,0,12.072H524.3118a6.036,6.036,0,0,0,0-12.072Z" transform="translate(-253.5 -186)" fill="#e6e6e6"/>
    <path d="M389.51753,357.52356H328.943a6.036,6.036,0,0,0,0,12.072h60.57458a6.036,6.036,0,0,0,0-12.072Z" transform="translate(-253.5 -186)" fill="#e6e6e6"/>
    <path d="M923.81,186H276.19a22.71737,22.71737,0,0,0-22.69,22.69V691.31A22.71737,22.71737,0,0,0,276.19,714H923.81a22.71737,22.71737,0,0,0,22.69-22.69V208.69A22.71737,22.71737,0,0,0,923.81,186ZM944.5,691.31A20.69,20.69,0,0,1,923.81,712H276.19a20.69,20.69,0,0,1-20.69-20.69V343.67554A155.67554,155.67554,0,0,1,411.17554,188H923.81a20.69,20.69,0,0,1,20.69,20.69Z" transform="translate(-253.5 -186)" fill="#e6e6e6"/>
    <path d="M883.39049,273.26853H316.66a1,1,0,0,1,0-2H883.39049a1,1,0,0,1,0,2Z" transform="translate(-253.5 -186)" fill="#e6e6e6"/>
    <ellipse cx="91.51486" cy="48.60301" rx="8.45661" ry="8.64507" fill="#e6e6e6"/>
    <ellipse cx="120.72861" cy="48.60301" rx="8.45661" ry="8.64507" fill="#e6e6e6"/>
    <ellipse cx="149.94237" cy="48.60301" rx="8.45661" ry="8.64507" fill="#e6e6e6"/>
    <path d="M436.75379,241.4358a.9967.9967,0,0,1-.71485-.30078l-5.70605-5.833a.99954.99954,0,0,1,0-1.39844l5.70605-5.83251a1,1,0,1,1,1.42969,1.39843l-5.022,5.1333,5.022,5.13379a1,1,0,0,1-.71484,1.69922Z" transform="translate(-253.5 -186)" fill="#e6e6e6"/>
    <path d="M446.34217,241.4358a1,1,0,0,1-.71485-1.69922l5.02149-5.13379-5.02149-5.1333a1,1,0,0,1,1.42969-1.39843l5.70557,5.83251a.99954.99954,0,0,1,0,1.39844l-5.70557,5.833A.9967.9967,0,0,1,446.34217,241.4358Z" transform="translate(-253.5 -186)" fill="#e6e6e6"/>
    <path d="M832.852,226.95884h-10.61a2.18935,2.18935,0,0,0-2.19,2.19v10.62a2.18936,2.18936,0,0,0,2.19,2.19h10.61a2.19791,2.19791,0,0,0,2.2-2.19v-10.62A2.1979,2.1979,0,0,0,832.852,226.95884Z" transform="translate(-253.5 -186)" fill="#e6e6e6"/>
    <path d="M806.852,226.95884h-10.61a2.18935,2.18935,0,0,0-2.19,2.19v10.62a2.18936,2.18936,0,0,0,2.19,2.19h10.61a2.19791,2.19791,0,0,0,2.2-2.19v-10.62A2.1979,2.1979,0,0,0,806.852,226.95884Z" transform="translate(-253.5 -186)" fill="#e6e6e6"/>
    <path d="M857.352,227.45884h-10.61a2.18935,2.18935,0,0,0-2.19,2.19v10.62a2.18936,2.18936,0,0,0,2.19,2.19h10.61a2.19791,2.19791,0,0,0,2.2-2.19v-10.62A2.1979,2.1979,0,0,0,857.352,227.45884Z" transform="translate(-253.5 -186)" fill="#e6e6e6"/>
    <path d="M642.4303,231.49881h-84.81a2.67,2.67,0,1,0,0,5.34h84.81a2.67,2.67,0,0,0,0-5.34Z" transform="translate(-253.5 -186)" fill="#e6e6e6"/>
    <path d="M415.10743,596.44634l-50.717-1.60323c-7.03419-.22236-14.94447-.211-19.96166,3.42421-5.6943,4.12585-4.83213,11.43535-.10431,16.17646s12.277,7.44976,19.68637,9.652c39.36385,11.7,82.92866,14.07521,125.229,11.42782s83.73-10.13147,124.95545-17.59027c3.91-.70743,8.3414-1.7253,9.93587-4.44631,1.54247-2.63224-.47577-5.80651-3.61075-7.50776s-7.10942-2.27452-10.94329-2.78084a1027.70791,1027.70791,0,0,0-209.50054-5.976" transform="translate(-253.5 -186)" fill="#6c63ff"/>
    <path d="M506.23,557.44v-12c-8.70812.12331-39.87043-.08886-48,.00027-.605,41.94091-4.31337,33.72515,30.04795,33.88847a5.97483,5.97483,0,0,1,5.95226,5.96665l0,.18a5.965,5.965,0,0,1-5.96511,5.96462H458.23v12h48c.0674-.04016-.04859-11.58721.00015-12,2.02955-34.76507-1.98621-22.26148-31.16579-23.65566a5.0949,5.0949,0,0,1-4.83453-5.09462l0-.1499a5.1001,5.1001,0,0,1,5.09983-5.09981Z" transform="translate(-253.5 -186)" fill="#3f3d56"/>
    <path d="M565.23,557.44v-12c-8.70812.12331-39.87043-.08886-48,.00027-.61022,42.30528-4.378,33.57862,30.95215,33.89466a5.1,5.1,0,0,1,5.04814,5.09957c-.00006.63012-.00011,1.27547-.00015,1.90717a5.0988,5.0988,0,0,1-5.09982,5.09833H517.23v12h48c.0674-.04016-.04859-11.58721.00015-12,2.02955-34.76507-1.98621-22.26148-31.16579-23.65566a5.0949,5.0949,0,0,1-4.83453-5.09462l0-.1499a5.1001,5.1001,0,0,1,5.09983-5.09981Z" transform="translate(-253.5 -186)" fill="#3f3d56"/>
    <path d="M444.23,557.44v-12h-48c-.034,10.70325.0245,39.0319-.00007,49.99987-9.40881,15.92872,44.04243,4.90065,48.00271,8.00441C444.23,603.44,444.23,591.44,444.23,591.44c-36.5211-.19074-37.43887,6.6459-36.264-26.42981a7.84378,7.84378,0,0,1,7.83373-7.57093C426.358,557.44,444.23,557.44,444.23,557.44Z" transform="translate(-253.5 -186)" fill="#3f3d56"/>
    <path d="M539.10743,453.11245l-50.717-1.33642c-7.03419-.18536-14.94447-.17591-19.96166,2.85435-5.6943,3.43922-4.83213,9.53228-.10431,13.48439s12.277,6.21,19.68637,8.04575c39.36385,9.75291,82.92866,11.73282,125.229,9.526s83.73-8.4454,124.95545-14.66291c3.91-.5897,8.3414-1.43818,9.93587-3.70636,1.54247-2.19419-.47577-4.84019-3.61075-6.25832s-7.10942-1.896-10.94329-2.31806a1231.4445,1231.4445,0,0,0-209.50054-4.98149" transform="translate(-253.5 -186)" fill="#6c63ff"/>
    <path d="M530.22986,400.44c-.81725,18.52643,5.99213,24.3577-17.501,21.99778-1.58724-11.0521,6.46193-26.38959-11.99874-22.49565,3.69817,8.01754-10.3027,68.844,11.99588,57.99455,1.25236-18.27481-7.00207-26.29029,17.50448-23.49444,1.96518,11.297-7.2074,27.92118,11.99857,23.996C538.53142,450.41692,552.53242,389.596,530.22986,400.44Z" transform="translate(-253.5 -186)" fill="#3f3d56"/>
    <path d="M653.22986,400.44c1.64714,1.01689-15.09043,18.72384-15.45157,20.1747-.50211-1.23824-16.47736-18.56236-14.5483-20.174-22.22954-10.985-8.37541,50.19481-12.00424,58.002.00411-.00271,12.00411-.00271,12.00411-.00271V420.44177c16.86715,22.74983,13.73491,18.92152,30.00031-1.11688L653.22986,458.44c22.2288,10.98872,8.37573-50.19873,12.00412-58.0027C665.22986,400.44,653.22986,400.44,653.22986,400.44Z" transform="translate(-253.5 -186)" fill="#3f3d56"/>
    <path d="M600.22986,400.44h-48c-2.82037,16.82193,6.50508,11.1801,18.00167,11.99963L570.22986,458.44h12v-46C593.67321,411.66182,603.08577,417.18779,600.22986,400.44Z" transform="translate(-253.5 -186)" fill="#3f3d56"/>
    <path d="M687.22986,446.44a128.27936,128.27936,0,0,1,0-46h-12c.06918,7.60291-.02139,38.28212-.01434,52.31169a5.71,5.71,0,0,0,5.7058,5.71268c12.08981.016,35.17-.07316,42.30866-.02419L723.22986,446.44Z" transform="translate(-253.5 -186)" fill="#3f3d56"/>
    <path d="M380.68115,448.44H331.907a9,9,0,0,0,0,18h48.77419a9,9,0,0,0,0-18Z" transform="translate(-253.5 -186)" fill="#e6e6e6"/>
    <polygon points="569.392 517.568 559.491 517.567 554.781 479.377 569.394 479.378 569.392 517.568" fill="#ffb6b6"/>
    <path d="M823.24065,713.89669l-30.447-.00115v-.385a11.85147,11.85147,0,0,1,11.85083-11.85065h.00073l5.56152-4.21924,10.37659,4.21991,2.65784.00006Z" transform="translate(-253.5 -186)" fill="#2f2e41"/>
    <polygon points="604.392 517.568 594.491 517.567 589.781 479.377 604.394 479.378 604.392 517.568" fill="#ffb6b6"/>
    <path d="M858.24065,713.89669l-30.447-.00115v-.385a11.85147,11.85147,0,0,1,11.85083-11.85065h.00073l5.56152-4.21924,10.37659,4.21991,2.65784.00006Z" transform="translate(-253.5 -186)" fill="#2f2e41"/>
    <path d="M798.23947,495.48018s-9.5262,29.25813-7.76785,33.109S795.23,529.44,792.23,532.44s-5.61884-.189-2.80942,4.90551,7.06559,47.03407,8.93751,49.06428,4.44568,2.08468,2.15879,4.05745S795.23,588.44,798.23,592.44s10.96063,96.27559,10.96063,96.27559h15.55114s3.87318-4.46456,1.68071-7.37008.19247-4.02548,0-5.96549.53674-6.12277.67213-8.03139,2.76354-47.37757-3.55054-73.6431l11.51362-50.01216,5.75679,60.44638s-6.41553,50.70183,0,67.001c0,0-5.17233,4.30709-2.87841,6.80315S842.23,678.44,840.23,680.44s3,9,3,9l17-1,9.62205-94.73447s1.622-9.8797,0-11.57261S868.23,586.44,868.23,580.44v-8s7.25056-49.20472,7.12528-52.10236S863.23,496.44,863.23,496.44Z" transform="translate(-253.5 -186)" fill="#2f2e41"/>
    <path d="M848.51935,377.14728l-24.823-1.70728-7.42785,11.712-17.88863,7.27293v57.69454A55.60033,55.60033,0,0,1,801.23,469.44c-.06823,11.49453-3.02253,25.03466-2,28,10,29,65,0,65,0l-1-31,1.3574-70.05937-11.23893-8.96384Z" transform="translate(-253.5 -186)" fill="#e6e6e6"/>
    <path d="M797.23253,508.00462,795.521,489.76337l-10.55686-.47618,2.49569,19.2214a6.13324,6.13324,0,1,0,9.77265-.504Z" transform="translate(-253.5 -186)" fill="#ffb6b6"/>
    <path d="M802.42783,392.88645l-.29266.04951a16.98787,16.98787,0,0,0-12.58455,9.62841c-3.02332,6.5379-12.8398,49.51683-8.53654,55.99808,3.3376,5.02689,2.52673,4.04615.95778,7.838s-4.0957-.25436-2.02478,5.76366,4.34666,5.1593,2.42433,7.48456-3.89421,1.86944-2.02477,5.76366,1.56555,5.20879,1.91895,6.67532.04613,11.78169.04613,11.78169,11.27634-.85538,16.888,1.82668c0,0-3.13114-10.41759-1.36073-12.08558s3.89423-1.86945,2.37818-4.29714-4.95445-2.53012-1.21216-3.74229,2.5369-22.95558,2.5369-22.95558C807.70522,446.47493,805.26991,419.92688,802.42783,392.88645Z" transform="translate(-253.5 -186)" fill="#e6e6e6"/>
    <path d="M870.42228,509.30641l.78906-18.30436,10.51939-1.00815-1.52282,19.32283a6.13324,6.13324,0,1,1-9.78563-.01032Z" transform="translate(-253.5 -186)" fill="#ffb6b6"/>
    <path d="M859.42612,394.59691l.29478.03468a16.9879,16.9879,0,0,1,13.05426,8.98129c3.34929,6.37706,13.94508,49.56879,11.35067,55.49615-2.41947,5.52769-2.3194,4.16845-.56116,7.87628s4.07765-.46066,2.313,5.65418-4.08085,5.372-2.04366,7.59733,3.98356,1.6706,2.313,5.65417-1.30078,5.28114-1.57975,6.76363.54829,11.769.54829,11.769-11.30514-.28542-16.77439,2.67632c0,0,2.60161-10.56228.74931-12.13883s-3.98358-1.67062-2.59193-4.17169,4.8205-2.77685,1.02182-3.79868-3.6917-22.79838-3.6917-22.79838Z" transform="translate(-253.5 -186)" fill="#e6e6e6"/>
    <circle cx="583.21719" cy="166.41031" r="19.36219" fill="#ffb6b6"/>
    <path d="M850.19186,368.98408c2.69286-2.10746,2.95426-6.12449,5.25223-8.65672,3.8421-4.23373,5.64722-8.78866,3.63458-13.80527-1.78015-4.437-1.40178-9.89125-5.23573-12.74732,1.883-.68165,2.32615-2.09722.66469-2.12336-1.12042-.01762-5.29722,2.12375-3.28744-.54383s-1.7946-1.61462-1.543-2.70656,1.8652-1.69671,2.57686-.83115a5.6397,5.6397,0,0,0-8.84591,1.01189c-2.26458-3.39392-4.66838-5.72925-8.13365-3.57547-3.40345,2.11532-3.359,4.73016-7.01886,4.10174-1.72058-.29541-1.88315,2.95523-3.05854,4.246a5.24691,5.24691,0,0,1-4.609,1.96555c-1.7154-.32418-3.02709-2.46193-2.06587-3.91923l-4.043,9.22356-1.62943-1.99866c-2.58913,1.68734-1.73874,6.09027.86747,7.7511s5.993,1.30585,8.99444.56967a35.27556,35.27556,0,0,1,11.05161-.91662c5.6662.80049,9.61278,7.57467,7.51461,12.89861,2.177-2.13776,6.20431-.36368,7.3321,2.47138s.30082,6.02913-.5352,8.96351" transform="translate(-253.5 -186)" fill="#2f2e41"/>
  </svg>
</svg>
