<?xml version="1.0" encoding="UTF-8"?>
<svg version="1.1" xmlns="http://www.w3.org/2000/svg" width="512" height="512">
<path d="M0 0 C0.96642951 -0.00453111 1.93285901 -0.00906223 2.92857426 -0.01373065 C6.16965037 -0.02639939 9.41055897 -0.02475266 12.6516571 -0.02310181 C14.97436235 -0.02908551 17.29706561 -0.03589069 19.61976624 -0.04345703 C25.93180009 -0.06114045 32.24377973 -0.06581341 38.55583596 -0.0670886 C43.8242345 -0.06898701 49.09262039 -0.07634389 54.36101407 -0.08343279 C66.08065475 -0.09907665 77.80027193 -0.10476992 89.51992211 -0.10342209 C90.22291126 -0.10334218 90.92590041 -0.10326227 91.65019226 -0.10317993 C92.70596683 -0.10305729 92.70596683 -0.10305729 93.78307017 -0.10293217 C105.18759048 -0.10211943 116.59197867 -0.12125469 127.99646077 -0.14945666 C139.71263568 -0.17820028 151.42874619 -0.19199614 163.14495724 -0.19026911 C169.72025699 -0.18975906 176.29540722 -0.19546642 182.87067604 -0.21662521 C189.05540718 -0.23598355 195.23984582 -0.23614824 201.42458725 -0.22159195 C203.69332875 -0.21949978 205.96208844 -0.22422896 208.23079872 -0.23631287 C211.33064202 -0.25175301 214.42947526 -0.24246461 217.52929688 -0.22705078 C218.42473829 -0.23733791 219.32017971 -0.24762503 220.24275571 -0.25822389 C227.76108945 -0.17574564 233.9273775 2.13573274 239.2676239 7.57992554 C239.81031921 8.11230835 240.35301453 8.64469116 240.91215515 9.19320679 C244.98604124 14.66974732 245.8961845 19.84176976 245.83544064 26.54028225 C245.84010055 27.34962826 245.84476047 28.15897427 245.8495616 28.99284592 C245.86150988 31.70412129 245.85211684 34.41489539 245.84280396 37.12617493 C245.84697694 39.08992285 245.85245426 41.05366836 245.85912377 43.01740938 C245.87360164 48.41334613 245.8693263 53.80913044 245.86195695 59.20507562 C245.85723342 65.02453387 245.8697279 70.84395876 245.87997437 76.66340637 C245.89718346 88.06387769 245.89799802 99.46429394 245.89276146 110.86477488 C245.88872259 120.12942005 245.89015996 129.39404892 245.89550972 138.65869331 C245.89625814 139.97650705 245.89700656 141.29432079 245.89777767 142.65206828 C245.89892286 144.65794906 245.90007274 146.66382984 245.90123691 148.66971061 C245.9119419 167.31845103 245.91666714 185.96718543 245.90876675 204.6159277 C245.90832099 205.67039413 245.90832099 205.67039413 245.90786622 206.74616292 C245.90541728 212.45484734 245.9028057 218.16353168 245.90018209 223.87221601 C245.89007904 246.14126957 245.89843614 268.41024773 245.92167664 290.67929077 C245.94774601 315.69944537 245.96059809 340.71955458 245.95348889 365.73972327 C245.94993277 378.98726592 245.95225575 392.23474929 245.96973991 405.48228264 C245.98443841 416.75916682 245.98512808 428.03594546 245.967669 439.31282752 C245.95913744 445.06771561 245.95706215 450.82241499 245.97232056 456.5772934 C245.98611318 461.84447709 245.9814744 467.11130943 245.96208132 472.37847251 C245.95830433 474.28485225 245.96129193 476.19125977 245.97169297 478.09761488 C245.98482419 480.68840988 245.97331453 483.27798532 245.95569515 485.86872768 C245.96534566 486.60937907 245.97499618 487.35003046 245.98493913 488.11312583 C245.89303971 494.69151734 243.63130022 499.81484757 239.27153015 504.72836304 C238.15584656 505.67582397 238.15584656 505.67582397 237.0176239 506.64242554 C236.27641296 507.28953491 235.53520203 507.93664429 234.77153015 508.60336304 C230.20016374 511.88734633 226.35561672 512.51824426 220.77704334 512.52748775 C220.11580435 512.53129343 219.45456536 512.5350991 218.77328882 512.53902009 C216.55385794 512.54934022 214.33468261 512.54542898 212.11523438 512.5415802 C210.50937134 512.54603239 208.90351051 512.55134637 207.2976529 512.55744892 C202.88162509 512.57164183 198.46566762 512.57329197 194.04962027 512.57285202 C189.28803971 512.57449909 184.52648822 512.58756361 179.7649231 512.5990448 C169.35165711 512.62190276 158.9384115 512.62981631 148.52512383 512.63487124 C142.02312621 512.63812743 135.52113452 512.64464945 129.01914024 512.65187263 C111.01727266 512.67143984 93.01541059 512.68784326 75.01353168 512.69074917 C73.28526594 512.69103052 73.28526594 512.69103052 71.52208574 512.69131756 C69.18633187 512.69168381 66.850578 512.69204751 64.51482413 512.69240867 C63.35535011 512.69259148 62.19587608 512.6927743 61.00126648 512.69296265 C59.25993276 512.69323347 59.25993276 512.69323347 57.48342057 512.69350976 C38.67285072 512.6970514 19.86239535 512.72407262 1.0518652 512.76146054 C-18.26025945 512.79953825 -37.57232729 512.81890661 -56.88449031 512.81920868 C-67.72771475 512.81979338 -78.57080263 512.82829359 -89.41399193 512.85720634 C-98.64726445 512.88171306 -107.88035063 512.88900789 -117.11364689 512.87395882 C-121.82380165 512.86678697 -126.53358838 512.86765925 -131.24370193 512.89036942 C-135.5588143 512.91097552 -139.87327609 512.90834399 -144.18838153 512.88749457 C-145.74627805 512.88400278 -147.30422167 512.8888966 -148.86205646 512.90319901 C-158.5769848 512.98661611 -166.96797098 512.38602363 -174.4409706 505.52715105 C-180.67518942 498.91549918 -182.19719043 492.48266661 -181.9511261 483.55258179 C-180.96319555 475.56364344 -176.95555729 470.02828417 -171.09565735 464.74008179 C-162.5005621 459.77782925 -153.60219271 459.88700763 -143.9198761 460.07992554 C-139.5061261 460.14180054 -135.0923761 460.20367554 -130.5448761 460.26742554 C-130.5448761 449.37742554 -130.5448761 438.48742554 -130.5448761 427.26742554 C-133.54162415 427.2883728 -136.53837219 427.30932007 -139.62593079 427.3309021 C-149.56037057 427.39737265 -159.49482053 427.44144088 -169.42942429 427.47467422 C-175.44898556 427.49549149 -181.46831773 427.5237019 -187.48774719 427.56918335 C-193.303843 427.61285023 -199.11971932 427.63660667 -204.93596649 427.64693451 C-207.14778851 427.65428856 -209.35959939 427.66864874 -211.57132721 427.69034576 C-228.22381911 427.84711406 -241.87971845 427.15974568 -254.7011261 415.26742554 C-261.0191599 408.6664947 -266.65591297 399.56296496 -266.67909718 390.16522217 C-266.68355502 389.32653438 -266.68801286 388.48784658 -266.69260579 387.62374401 C-266.69242143 386.70226731 -266.69223707 385.78079062 -266.69204712 384.83139038 C-266.69572381 383.85245221 -266.6994005 382.87351404 -266.7031886 381.86491108 C-266.71424235 378.56938982 -266.71807219 375.27390008 -266.72187805 371.97836304 C-266.72814154 369.62141316 -266.73478824 367.26446428 -266.74179077 364.90751648 C-266.76103223 357.82226193 -266.77162244 350.73701091 -266.78051856 343.65173674 C-266.78490338 340.31290821 -266.79026981 336.97408118 -266.79550743 333.63525391 C-266.81252187 322.53132964 -266.82701401 311.42740637 -266.83425617 300.32347107 C-266.836166 297.44199624 -266.83808633 294.56052143 -266.84004211 291.67904663 C-266.84052585 290.96289039 -266.84100959 290.24673415 -266.84150799 289.5088762 C-266.84980064 277.91873341 -266.8751236 266.32869409 -266.90762279 254.73859644 C-266.94073769 242.83150561 -266.95870906 230.92446727 -266.96190041 219.01733017 C-266.96406177 212.33515511 -266.97320103 205.65311053 -266.99836159 198.97097778 C-267.02166416 192.68039819 -267.02586649 186.39008935 -267.0156002 180.09947777 C-267.01510523 177.79490444 -267.02141411 175.4903177 -267.03515625 173.18578529 C-267.12613138 157.02021465 -266.32020141 143.71691122 -254.7323761 131.32992554 C-245.45061549 122.64698819 -234.45586569 118.93111591 -221.91413879 119.0269165 C-221.08242582 119.02520765 -220.25071284 119.0234988 -219.39379644 119.02173817 C-216.62700935 119.01846289 -213.8604687 119.02941442 -211.09370422 119.04037476 C-209.10240179 119.04093929 -207.11109894 119.04062148 -205.11979675 119.03948975 C-199.72784379 119.0389169 -194.33598016 119.05066027 -188.94404793 119.06463766 C-183.30395589 119.0771563 -177.66386172 119.07831642 -172.02375793 119.08068848 C-161.3496321 119.0868999 -150.67554734 119.10330619 -140.00143957 119.12338746 C-127.84671475 119.14575692 -115.69198795 119.15674253 -103.53724766 119.16677833 C-78.53976772 119.18767269 -53.54232421 119.22284214 -28.5448761 119.26742554 C-28.54931732 118.0972438 -28.55375854 116.92706207 -28.55833435 115.72142029 C-28.59894686 104.67241086 -28.62889238 93.62341665 -28.64850044 82.5743494 C-28.65892013 76.89445436 -28.6730462 71.21461978 -28.695755 65.53475952 C-28.71754806 60.04937079 -28.72945837 54.56404007 -28.73463058 49.07861137 C-28.73831474 46.98993454 -28.74550891 44.90126074 -28.75633621 42.81260872 C-28.77093699 39.87828939 -28.77285045 36.94420721 -28.77192688 34.00985718 C-28.77911743 33.1538945 -28.78630798 32.29793182 -28.79371643 31.41603088 C-28.76214398 22.0945243 -27.53378844 14.22496107 -20.68159485 7.41586304 C-13.92489865 1.23176821 -9.00739783 -0.03092419 0 0 Z " fill="#3E50B4" transform="translate(266.5448760986328,-0.267425537109375)"/>
<path d="M0 0 C1.28780758 -0.00623996 2.57561517 -0.01247993 3.90244722 -0.01890898 C7.45218749 -0.03551194 11.0014942 -0.02739766 14.55123544 -0.0149641 C18.38907991 -0.00587858 22.2268521 -0.01990062 26.06468201 -0.03088379 C33.57318352 -0.04863639 41.08152476 -0.04484361 48.59003246 -0.03323323 C54.69431741 -0.02418631 60.79855756 -0.02298034 66.90284729 -0.02732849 C68.20784228 -0.02824789 68.20784228 -0.02824789 69.53920081 -0.02918586 C71.30678317 -0.03046481 73.07436552 -0.03176166 74.84194785 -0.03307623 C91.40243902 -0.04447248 107.9628415 -0.03138333 124.52331811 -0.00987476 C138.72176656 0.00799536 152.92008418 0.00489098 167.11853027 -0.0135498 C183.62123056 -0.03497341 200.1238532 -0.04337393 216.62656546 -0.03110075 C218.38751315 -0.0298266 220.14846085 -0.02856912 221.90940857 -0.02732849 C223.20891517 -0.02640284 223.20891517 -0.02640284 224.53467444 -0.02545848 C230.62905674 -0.02201005 236.72338963 -0.02782299 242.81776428 -0.0372467 C250.24848238 -0.04848463 257.67903153 -0.04538903 265.10973036 -0.02412373 C268.89838176 -0.01363734 272.68675184 -0.00944997 276.47540092 -0.02272034 C280.58792901 -0.0369069 284.69975164 -0.01992679 288.81225586 0 C290.59680451 -0.01338433 290.59680451 -0.01338433 292.41740465 -0.02703905 C300.74647334 0.05116023 307.65017226 1.48880655 314.52722168 6.36730957 C315.42634277 7.30316895 315.42634277 7.30316895 316.34362793 8.25793457 C316.96108887 8.87152832 317.5785498 9.48512207 318.21472168 10.11730957 C322.53383037 16.22191584 323.34629811 22.23345091 323.26689148 29.48034668 C323.26945953 30.34673264 323.27202759 31.21311859 323.27467346 32.10575867 C323.27961341 34.99912409 323.26311115 37.89196102 323.2467041 40.78527832 C323.24578455 42.89884932 323.24618651 45.01242124 323.24779987 47.12599182 C323.24847593 52.77558136 323.23111417 58.42497948 323.20996857 64.07452393 C323.19285793 69.37980743 323.1920778 74.68504487 323.18994141 79.99035645 C323.1742122 95.49624108 323.13232861 111.00209026 323.09362793 126.50793457 C323.03175293 161.15793457 322.96987793 195.80793457 322.90612793 231.50793457 C204.76612793 231.50793457 86.62612793 231.50793457 -35.09387207 231.50793457 C-35.19699707 196.89918457 -35.30012207 162.29043457 -35.40637207 126.63293457 C-35.45189209 115.70829102 -35.49741211 104.78364746 -35.54431152 93.5279541 C-35.56689453 80.17956543 -35.56689453 80.17956543 -35.5710907 73.92904663 C-35.57574583 69.56685654 -35.59447036 65.2049712 -35.62174988 60.84286499 C-35.65611494 55.27374323 -35.66631517 49.7050629 -35.65923345 44.13584495 C-35.66071368 42.09507836 -35.67058787 40.05429591 -35.68994772 38.01362062 C-35.87790823 17.23094881 -35.87790823 17.23094881 -28.57191944 8.73890877 C-20.51743246 0.97251408 -10.70382342 -0.08027997 0 0 Z " fill="#02A8F3" transform="translate(52.0938720703125,135.4920654296875)"/>
<path d="M0 0 C0.96642951 -0.00453111 1.93285901 -0.00906223 2.92857426 -0.01373065 C6.16965037 -0.02639939 9.41055897 -0.02475266 12.6516571 -0.02310181 C14.97436235 -0.02908551 17.29706561 -0.03589069 19.61976624 -0.04345703 C25.93180009 -0.06114045 32.24377973 -0.06581341 38.55583596 -0.0670886 C43.8242345 -0.06898701 49.09262039 -0.07634389 54.36101407 -0.08343279 C66.08065475 -0.09907665 77.80027193 -0.10476992 89.51992211 -0.10342209 C90.22291126 -0.10334218 90.92590041 -0.10326227 91.65019226 -0.10317993 C92.70596683 -0.10305729 92.70596683 -0.10305729 93.78307017 -0.10293217 C105.18759048 -0.10211943 116.59197867 -0.12125469 127.99646077 -0.14945666 C139.71263568 -0.17820028 151.42874619 -0.19199614 163.14495724 -0.19026911 C169.72025699 -0.18975906 176.29540722 -0.19546642 182.87067604 -0.21662521 C189.05540718 -0.23598355 195.23984582 -0.23614824 201.42458725 -0.22159195 C203.69332875 -0.21949978 205.96208844 -0.22422896 208.23079872 -0.23631287 C211.33064202 -0.25175301 214.42947526 -0.24246461 217.52929688 -0.22705078 C218.42473829 -0.23733791 219.32017971 -0.24762503 220.24275571 -0.25822389 C227.76108945 -0.17574564 233.9273775 2.13573274 239.2676239 7.57992554 C239.81031921 8.11230835 240.35301453 8.64469116 240.91215515 9.19320679 C244.98604124 14.66974732 245.8961845 19.84176976 245.83544064 26.54028225 C245.84010055 27.34962826 245.84476047 28.15897427 245.8495616 28.99284592 C245.86150988 31.70412129 245.85211684 34.41489539 245.84280396 37.12617493 C245.84697694 39.08992285 245.85245426 41.05366836 245.85912377 43.01740938 C245.87360164 48.41334613 245.8693263 53.80913044 245.86195695 59.20507562 C245.85723342 65.02453387 245.8697279 70.84395876 245.87997437 76.66340637 C245.89718346 88.06387769 245.89799802 99.46429394 245.89276146 110.86477488 C245.88872259 120.12942005 245.89015996 129.39404892 245.89550972 138.65869331 C245.89625814 139.97650705 245.89700656 141.29432079 245.89777767 142.65206828 C245.89892286 144.65794906 245.90007274 146.66382984 245.90123691 148.66971061 C245.9119419 167.31845103 245.91666714 185.96718543 245.90876675 204.6159277 C245.90832099 205.67039413 245.90832099 205.67039413 245.90786622 206.74616292 C245.90541728 212.45484734 245.9028057 218.16353168 245.90018209 223.87221601 C245.89007904 246.14126957 245.89843614 268.41024773 245.92167664 290.67929077 C245.94774601 315.69944537 245.96059809 340.71955458 245.95348889 365.73972327 C245.94993277 378.98726592 245.95225575 392.23474929 245.96973991 405.48228264 C245.98443841 416.75916682 245.98512808 428.03594546 245.967669 439.31282752 C245.95913744 445.06771561 245.95706215 450.82241499 245.97232056 456.5772934 C245.98611318 461.84447709 245.9814744 467.11130943 245.96208132 472.37847251 C245.95830433 474.28485225 245.96129193 476.19125977 245.97169297 478.09761488 C245.98482419 480.68840988 245.97331453 483.27798532 245.95569515 485.86872768 C245.96534566 486.60937907 245.97499618 487.35003046 245.98493913 488.11312583 C245.89303971 494.69151734 243.63130022 499.81484757 239.27153015 504.72836304 C238.15584656 505.67582397 238.15584656 505.67582397 237.0176239 506.64242554 C236.27641296 507.28953491 235.53520203 507.93664429 234.77153015 508.60336304 C230.20016374 511.88734633 226.35561672 512.51824426 220.77704334 512.52748775 C220.11580435 512.53129343 219.45456536 512.5350991 218.77328882 512.53902009 C216.55385794 512.54934022 214.33468261 512.54542898 212.11523438 512.5415802 C210.50937134 512.54603239 208.90351051 512.55134637 207.2976529 512.55744892 C202.88162509 512.57164183 198.46566762 512.57329197 194.04962027 512.57285202 C189.28803971 512.57449909 184.52648822 512.58756361 179.7649231 512.5990448 C169.35165711 512.62190276 158.9384115 512.62981631 148.52512383 512.63487124 C142.02312621 512.63812743 135.52113452 512.64464945 129.01914024 512.65187263 C111.01727266 512.67143984 93.01541059 512.68784326 75.01353168 512.69074917 C73.28526594 512.69103052 73.28526594 512.69103052 71.52208574 512.69131756 C69.18633187 512.69168381 66.850578 512.69204751 64.51482413 512.69240867 C63.35535011 512.69259148 62.19587608 512.6927743 61.00126648 512.69296265 C59.25993276 512.69323347 59.25993276 512.69323347 57.48342057 512.69350976 C38.67285072 512.6970514 19.86239535 512.72407262 1.0518652 512.76146054 C-18.26025945 512.79953825 -37.57232729 512.81890661 -56.88449031 512.81920868 C-67.72771475 512.81979338 -78.57080263 512.82829359 -89.41399193 512.85720634 C-98.64726445 512.88171306 -107.88035063 512.88900789 -117.11364689 512.87395882 C-121.82380165 512.86678697 -126.53358838 512.86765925 -131.24370193 512.89036942 C-135.5588143 512.91097552 -139.87327609 512.90834399 -144.18838153 512.88749457 C-145.74627805 512.88400278 -147.30422167 512.8888966 -148.86205646 512.90319901 C-158.5769848 512.98661611 -166.96797098 512.38602363 -174.4409706 505.52715105 C-180.67518942 498.91549918 -182.19719043 492.48266661 -181.9511261 483.55258179 C-180.96319555 475.56364344 -176.95555729 470.02828417 -171.09565735 464.74008179 C-162.5005621 459.77782925 -153.60219271 459.88700763 -143.9198761 460.07992554 C-139.5061261 460.14180054 -135.0923761 460.20367554 -130.5448761 460.26742554 C-130.5448761 449.37742554 -130.5448761 438.48742554 -130.5448761 427.26742554 C-133.54162415 427.2883728 -136.53837219 427.30932007 -139.62593079 427.3309021 C-149.56037057 427.39737265 -159.49482053 427.44144088 -169.42942429 427.47467422 C-175.44898556 427.49549149 -181.46831773 427.5237019 -187.48774719 427.56918335 C-193.303843 427.61285023 -199.11971932 427.63660667 -204.93596649 427.64693451 C-207.14778851 427.65428856 -209.35959939 427.66864874 -211.57132721 427.69034576 C-228.22381911 427.84711406 -241.87971845 427.15974568 -254.7011261 415.26742554 C-261.0191599 408.6664947 -266.65591297 399.56296496 -266.67909718 390.16522217 C-266.68355502 389.32653438 -266.68801286 388.48784658 -266.69260579 387.62374401 C-266.69242143 386.70226731 -266.69223707 385.78079062 -266.69204712 384.83139038 C-266.69572381 383.85245221 -266.6994005 382.87351404 -266.7031886 381.86491108 C-266.71424235 378.56938982 -266.71807219 375.27390008 -266.72187805 371.97836304 C-266.72814154 369.62141316 -266.73478824 367.26446428 -266.74179077 364.90751648 C-266.76103223 357.82226193 -266.77162244 350.73701091 -266.78051856 343.65173674 C-266.78490338 340.31290821 -266.79026981 336.97408118 -266.79550743 333.63525391 C-266.81252187 322.53132964 -266.82701401 311.42740637 -266.83425617 300.32347107 C-266.836166 297.44199624 -266.83808633 294.56052143 -266.84004211 291.67904663 C-266.84052585 290.96289039 -266.84100959 290.24673415 -266.84150799 289.5088762 C-266.84980064 277.91873341 -266.8751236 266.32869409 -266.90762279 254.73859644 C-266.94073769 242.83150561 -266.95870906 230.92446727 -266.96190041 219.01733017 C-266.96406177 212.33515511 -266.97320103 205.65311053 -266.99836159 198.97097778 C-267.02166416 192.68039819 -267.02586649 186.39008935 -267.0156002 180.09947777 C-267.01510523 177.79490444 -267.02141411 175.4903177 -267.03515625 173.18578529 C-267.12613138 157.02021465 -266.32020141 143.71691122 -254.7323761 131.32992554 C-245.45061549 122.64698819 -234.45586569 118.93111591 -221.91413879 119.0269165 C-221.08242582 119.02520765 -220.25071284 119.0234988 -219.39379644 119.02173817 C-216.62700935 119.01846289 -213.8604687 119.02941442 -211.09370422 119.04037476 C-209.10240179 119.04093929 -207.11109894 119.04062148 -205.11979675 119.03948975 C-199.72784379 119.0389169 -194.33598016 119.05066027 -188.94404793 119.06463766 C-183.30395589 119.0771563 -177.66386172 119.07831642 -172.02375793 119.08068848 C-161.3496321 119.0868999 -150.67554734 119.10330619 -140.00143957 119.12338746 C-127.84671475 119.14575692 -115.69198795 119.15674253 -103.53724766 119.16677833 C-78.53976772 119.18767269 -53.54232421 119.22284214 -28.5448761 119.26742554 C-28.54931732 118.0972438 -28.55375854 116.92706207 -28.55833435 115.72142029 C-28.59894686 104.67241086 -28.62889238 93.62341665 -28.64850044 82.5743494 C-28.65892013 76.89445436 -28.6730462 71.21461978 -28.695755 65.53475952 C-28.71754806 60.04937079 -28.72945837 54.56404007 -28.73463058 49.07861137 C-28.73831474 46.98993454 -28.74550891 44.90126074 -28.75633621 42.81260872 C-28.77093699 39.87828939 -28.77285045 36.94420721 -28.77192688 34.00985718 C-28.77911743 33.1538945 -28.78630798 32.29793182 -28.79371643 31.41603088 C-28.76214398 22.0945243 -27.53378844 14.22496107 -20.68159485 7.41586304 C-13.92489865 1.23176821 -9.00739783 -0.03092419 0 0 Z M-10.5448761 22.26742554 C-11.26211455 24.37287731 -11.26211455 24.37287731 -11.14614868 26.55119324 C-11.153022 27.3742395 -11.15989532 28.19728577 -11.16697693 29.04527283 C-11.14900055 29.93431808 -11.13102417 30.82336334 -11.11250305 31.73934937 C-11.11323318 32.68617584 -11.11396332 33.63300232 -11.11471558 34.60852051 C-11.11123838 37.73108658 -11.07237006 40.85215203 -11.03315735 43.97445679 C-11.02382972 46.1420663 -11.01671337 48.30968636 -11.01171875 50.47731018 C-10.99264522 56.17725829 -10.94354055 61.87656744 -10.88819885 67.57626343 C-10.83701451 73.3944535 -10.8142064 79.212747 -10.78901672 85.03109741 C-10.73542283 96.44348723 -10.65010507 107.85540321 -10.5448761 119.26742554 C-8.73442055 119.26956306 -8.73442055 119.26956306 -6.88739014 119.27174377 C4.54256408 119.28848535 15.97216554 119.33147659 27.40193272 119.39951611 C33.276729 119.43366182 39.15126865 119.45887673 45.02616882 119.46298218 C50.70634761 119.4672918 56.38594868 119.49597423 62.06594658 119.54085732 C64.22218892 119.55374757 66.3785007 119.55817042 68.53477669 119.55357933 C84.91851034 119.52684502 100.78676414 120.4282675 113.4551239 132.26742554 C122.30702355 142.4180595 125.60154599 153.38619181 125.60902405 166.57537842 C125.61559743 167.98698759 125.61559743 167.98698759 125.62230361 169.42711413 C125.63566525 172.58270827 125.64186464 175.7382745 125.647995 178.89389038 C125.65589823 181.15597662 125.66416732 183.4180616 125.67277527 185.68014526 C125.69897642 193.11287231 125.71430406 200.54560492 125.7285614 207.97836304 C125.73392244 210.54022856 125.73929995 213.10209405 125.74469376 215.6639595 C125.76632238 226.32531237 125.7852076 236.98666238 125.79631615 247.64803123 C125.7992455 250.41260151 125.80220721 253.17717176 125.80522156 255.94174194 C125.80596761 256.62880241 125.80671366 257.31586287 125.80748232 258.02374335 C125.82011645 269.13579607 125.85331548 280.24768808 125.89502339 291.3596658 C125.93756321 302.78772376 125.96061834 314.2156601 125.96623671 325.64380419 C125.96988169 332.05226789 125.98181219 338.46045921 126.01433945 344.86884689 C126.04453797 350.9050707 126.05068972 356.94085899 126.03895569 362.97714233 C126.03873592 365.18329115 126.04695999 367.38946087 126.06460953 369.59553909 C126.19494538 386.83606538 124.87536338 402.01617546 112.4551239 415.26742554 C105.02021466 421.78831842 94.179555 426.33713237 84.21568298 426.42564392 C83.37718307 426.43543274 82.53868317 426.44522156 81.67477417 426.45530701 C80.76343216 426.46106247 79.85209015 426.46681793 78.91313171 426.4727478 C77.94694412 426.4826474 76.98075653 426.492547 75.98529053 426.50274658 C72.79296821 426.53432396 69.60063102 426.55910423 66.4082489 426.58383179 C64.19435744 426.60440455 61.98046988 426.62540111 59.7665863 426.64680481 C53.94036518 426.7019921 48.11410881 426.75141617 42.28782654 426.7996521 C36.34225834 426.84989149 30.39674131 426.90556484 24.45121765 426.96078491 C12.78589517 427.06832564 1.1205292 427.16927758 -10.5448761 427.26742554 C-10.5448761 438.48742554 -10.5448761 449.70742554 -10.5448761 461.26742554 C-0.4642853 461.39805942 -0.4642853 461.39805942 9.616745 461.47518921 C17.72807402 461.65415329 24.73448184 462.23664615 31.4551239 467.26742554 C37.42668106 473.61192135 39.79783418 479.32964685 39.5801239 488.07992554 C39.57110046 488.77279663 39.56207703 489.46566772 39.55278015 490.17953491 C39.52938547 491.87564949 39.49352031 493.57158424 39.4551239 495.26742554 C63.22896774 495.36082565 87.00278412 495.43138358 110.77677441 495.47467422 C121.81520912 495.4953082 132.85352989 495.52344483 143.89189148 495.56918335 C153.51181196 495.60902546 163.13164994 495.63485227 172.75165063 495.64377952 C177.84641088 495.6489987 182.94093507 495.66128313 188.03561974 495.69034576 C192.82987496 495.71747331 197.62379665 495.7258759 202.41812134 495.71985626 C204.1785647 495.72095769 205.93901909 495.72892743 207.69939613 495.74424744 C210.10216272 495.76413418 212.50366818 495.75937022 214.90646362 495.7484436 C215.60394295 495.76009497 216.30142228 495.77174634 217.02003735 495.78375077 C221.7512322 495.72554999 224.12826088 494.60101584 227.4551239 491.26742554 C228.9740254 488.22962253 228.59902459 485.07473266 228.5949316 481.74198437 C228.59788303 480.95270415 228.60083445 480.16342393 228.60387531 479.35022613 C228.61261062 476.67728617 228.61415095 474.00438926 228.61575317 471.33143616 C228.62048111 469.40699069 228.6256316 467.48254621 228.63117081 465.55810291 C228.64511465 460.24774198 228.65267112 454.93738793 228.65914381 449.62701333 C228.66550376 445.07776317 228.67557534 440.52852437 228.68570446 435.97928127 C228.71906618 420.98935384 228.74055551 405.9994195 228.75890431 391.0094671 C228.76369688 387.10854898 228.76868048 383.20763116 228.77370954 379.30671334 C228.80467538 355.10264951 228.83137602 330.8985845 228.84812832 306.69450665 C228.8520657 301.08543073 228.85607751 295.47635487 228.8601532 289.86727905 C228.8609057 288.8219711 228.8609057 288.8219711 228.8616734 287.75554581 C228.87809715 265.15346201 228.91656135 242.55148636 228.9674403 219.94945578 C229.02110917 196.06460598 229.05284171 172.17982867 229.06032521 148.2949174 C229.06499546 135.2703467 229.07983054 122.24595502 229.1200695 109.22144127 C229.15428643 98.13244485 229.16834266 87.04365973 229.15564536 75.95461353 C229.14979913 70.29318891 229.15382037 64.63221164 229.183815 58.97085381 C229.21102864 53.79232111 229.21079173 48.61455674 229.18830455 43.43600807 C229.18506226 41.5584565 229.19206171 39.68085483 229.21010178 37.80338713 C229.23308418 35.25810782 229.21936736 32.71560608 229.19620419 30.17039013 C229.21168042 29.43486757 229.22715665 28.69934501 229.24310187 27.94153389 C229.18679384 25.15428436 228.97261138 22.92773885 227.22057132 20.69213815 C224.39928326 18.17167257 221.96494197 16.64269985 218.17004299 16.63821983 C217.366966 16.6251811 216.56388902 16.61214236 215.73647636 16.59870851 C214.8702278 16.60986212 214.00397923 16.62101573 213.11148071 16.63250732 C212.17883205 16.62470737 211.2461834 16.61690742 210.28527266 16.6088711 C207.16432161 16.58894875 204.04458957 16.60471698 200.92362976 16.62045288 C198.68457325 16.61367694 196.44552231 16.60477395 194.20648193 16.59390259 C188.12804407 16.5711015 182.05003035 16.57994891 175.97158504 16.59579802 C169.61310474 16.60845106 163.25466091 16.59671869 156.8961792 16.58886719 C145.5350497 16.57918677 134.17413573 16.59472969 122.81304932 16.62016387 C112.51355085 16.64250757 102.21433411 16.63861733 91.9148407 16.61557007 C79.95020291 16.58880918 67.98573625 16.57885366 56.02105814 16.59363139 C49.68898761 16.60143187 43.35711114 16.60245072 37.02505302 16.58594894 C31.07331553 16.57152178 25.12211097 16.58149454 19.17043114 16.61042023 C16.984295 16.61704002 14.79811413 16.61511822 12.6119957 16.6041069 C9.6313164 16.59047584 6.65235291 16.60753838 3.67178345 16.63250732 C2.36906452 16.61577691 2.36906452 16.61577691 1.04002804 16.59870851 C-4.47572072 16.68855381 -7.1482022 17.54342568 -10.5448761 22.26742554 Z M-244.5448761 146.26742554 C-251.460068 155.23538939 -250.21408287 166.06453818 -250.11250305 176.77182007 C-250.11096984 178.88563427 -250.11164145 180.99945103 -250.11432934 183.11326408 C-250.11545436 188.75458785 -250.0865558 194.39537724 -250.05127716 200.03657532 C-250.02272189 205.33741876 -250.02145723 210.63813474 -250.01789856 215.9390564 C-249.9917016 231.42358307 -249.92189544 246.90801112 -249.8573761 262.39242554 C-249.7542511 297.00117554 -249.6511261 331.60992554 -249.5448761 367.26742554 C-131.4048761 367.26742554 -13.2648761 367.26742554 108.4551239 367.26742554 C108.5169989 332.61742554 108.5788739 297.96742554 108.6426239 262.26742554 C108.66993591 251.32457397 108.69724792 240.38172241 108.72538757 229.10726929 C108.73542057 219.30246113 108.73542057 219.30246113 108.74145508 209.49765015 C108.74425124 205.1287886 108.75549855 200.76003629 108.77185059 196.39120483 C108.79243704 190.81715893 108.79859563 185.24327175 108.79434073 179.66919136 C108.79523038 177.62434565 108.80117383 175.57949435 108.81276929 173.53468132 C108.82772017 170.76953349 108.82408367 168.00499999 108.81588745 165.23983765 C108.82462544 164.44238129 108.83336344 163.64492493 108.84236622 162.82330322 C108.78546817 155.66742436 107.12641774 149.21843987 101.8926239 144.01742554 C100.99350281 143.08156616 100.99350281 143.08156616 100.07621765 142.12680054 C92.03259872 136.42074598 83.98735271 135.68729405 74.36125183 135.75949097 C73.07344425 135.753251 71.78563666 135.74701104 70.45880461 135.74058199 C66.90906434 135.72397903 63.35975763 135.73209331 59.81001639 135.74452686 C55.97217192 135.75361238 52.13439973 135.73959035 48.29656982 135.72860718 C40.78806831 135.71085457 33.27972707 135.71464735 25.77121937 135.72625774 C19.66693442 135.73530465 13.56269428 135.73651063 7.45840454 135.73216248 C6.15340955 135.73124308 6.15340955 135.73124308 4.82205102 135.73030511 C3.05446866 135.72902616 1.28688631 135.7277293 -0.48069602 135.72641474 C-17.04118718 135.71501849 -33.60158966 135.72810764 -50.16206628 135.74961621 C-64.36051473 135.76748632 -78.55883235 135.76438195 -92.75727844 135.74594116 C-109.25997873 135.72451756 -125.76260137 135.71611704 -142.26531363 135.72839022 C-144.02626132 135.72966436 -145.78720902 135.73092185 -147.54815674 135.73216248 C-148.84766334 135.73308813 -148.84766334 135.73308813 -150.1734226 135.73403248 C-156.26780491 135.73748091 -162.3621378 135.73166798 -168.45651245 135.72224426 C-175.88723055 135.71100633 -183.3177797 135.71410193 -190.74847853 135.73536724 C-194.53712992 135.74585362 -198.32550001 135.750041 -202.11414909 135.73677063 C-206.22667718 135.72258406 -210.3384998 135.73956418 -214.45100403 135.75949097 C-215.64070313 135.75056808 -216.83040223 135.74164519 -218.05615282 135.73245192 C-228.29871028 135.8286164 -237.64768956 138.25055253 -244.5448761 146.26742554 Z " fill="#000001" transform="translate(266.5448760986328,-0.267425537109375)"/>
<path d="M0 0 C39.95889718 -0.09157957 79.91778067 -0.16205094 119.87676185 -0.20426132 C124.59557578 -0.20926407 129.3143895 -0.21444137 134.03320312 -0.21972656 C134.97262367 -0.2207758 135.91204422 -0.22182505 136.87993206 -0.22290608 C152.08571205 -0.24030559 167.29143148 -0.27184078 182.49717556 -0.30861118 C198.10269132 -0.34603324 213.70817539 -0.36823853 229.31373417 -0.37635398 C238.94119715 -0.38183912 248.56848893 -0.39915598 258.1958992 -0.43166587 C264.80010859 -0.45282936 271.40422963 -0.45919589 278.00847046 -0.45400551 C281.81732787 -0.45144658 285.62588637 -0.45533583 289.43469048 -0.4768219 C293.56960024 -0.49997652 297.7038766 -0.491932 301.83883667 -0.48101807 C303.63361712 -0.49849512 303.63361712 -0.49849512 305.46465576 -0.51632524 C313.8199463 -0.45676174 320.72236343 0.96549179 327.62109375 5.859375 C328.52021484 6.79523438 328.52021484 6.79523438 329.4375 7.75 C330.05496094 8.36359375 330.67242187 8.9771875 331.30859375 9.609375 C335.62770244 15.71398127 336.44017019 21.72551634 336.36076355 28.97241211 C336.3633316 29.83879807 336.36589966 30.70518402 336.36854553 31.5978241 C336.37348548 34.49118952 336.35698322 37.38402645 336.34057617 40.27734375 C336.33965662 42.39091475 336.34005858 44.50448667 336.34167194 46.61805725 C336.342348 52.26764679 336.32498624 57.91704491 336.30384064 63.56658936 C336.28673 68.87187286 336.28594987 74.1771103 336.28381348 79.48242188 C336.26808427 94.98830651 336.22620068 110.49415569 336.1875 126 C336.125625 160.65 336.06375 195.3 336 231 C217.86 231 99.72 231 -22 231 C-22 220.77 -22 210.54 -22 200 C-16.52792969 200.06960938 -16.52792969 200.06960938 -10.9453125 200.140625 C15.64100269 200.40566661 41.73850827 200.48958573 68 196 C69.39895508 195.76772705 69.39895508 195.76772705 70.82617188 195.53076172 C76.28583615 194.59205707 81.63835752 193.38795066 87 192 C87.92973633 191.76442383 88.85947266 191.52884766 89.81738281 191.28613281 C125.27761482 182.18996129 158.28760091 168.01804061 187 145 C187.98484375 144.21882812 188.9696875 143.43765625 189.984375 142.6328125 C204.02484092 131.25747587 217.0529977 118.29906538 227.73779297 103.7109375 C229.04159958 101.94361125 230.37859038 100.20560877 231.72265625 98.46875 C239.09362489 88.83487842 245.12985292 78.59938783 251 68 C251.72910495 66.7082985 252.45826751 65.41662951 253.1875 64.125 C260.58325877 50.84104528 266.07770882 36.7487811 271.3125 22.5 C271.63798828 21.61691162 271.96347656 20.73382324 272.29882812 19.82397461 C274.54996296 13.58128755 276.24153012 7.44772289 278 1 C186.26 1 94.52 1 0 1 C0 0.67 0 0.34 0 0 Z " fill="#0276BB" transform="translate(39,136)"/>
<path d="M0 0 C1.1079075 -0.00935994 1.1079075 -0.00935994 2.23819697 -0.01890898 C4.70255338 -0.03480913 7.16591655 -0.02224699 9.63027954 -0.00964355 C11.40141881 -0.01506611 13.17255357 -0.02218953 14.94367981 -0.03088379 C19.74754013 -0.04910684 24.5510565 -0.0420531 29.35492277 -0.02936745 C34.38670997 -0.01923136 39.41846797 -0.02863512 44.45025635 -0.03491211 C52.90208209 -0.04218807 61.353768 -0.03260353 69.80557251 -0.0135498 C79.56794056 0.00820474 89.32997425 0.00117765 99.09233415 -0.02085543 C107.48065018 -0.03902767 115.86886575 -0.0415584 124.25719512 -0.03110075 C129.26416413 -0.02487405 134.27097619 -0.02400726 139.27793503 -0.0372467 C143.98780972 -0.04883061 148.69725504 -0.0407331 153.40708351 -0.01766968 C155.13238246 -0.01239554 156.85771775 -0.01387413 158.58300209 -0.02272034 C174.92526759 -0.09876555 174.92526759 -0.09876555 181.46084595 4.50793457 C186.73274152 11.13159824 186.67046418 16.58374679 186.71084595 24.69543457 C186.74178345 26.22007324 186.74178345 26.22007324 186.77334595 27.7755127 C186.80690925 34.27420767 186.71122561 40.9324595 182.07925415 46.02770996 C176.81044308 50.61694113 173.15416942 51.75775971 166.22467041 51.76863098 C165.12946014 51.7743693 165.12946014 51.7743693 164.01212442 51.78022355 C161.56478264 51.79054486 159.11767586 51.78656308 156.6703186 51.78259277 C154.91593712 51.78693976 153.16155754 51.79212287 151.40718079 51.79808044 C146.64061652 51.8114839 141.87413149 51.81204756 137.10755205 51.80951715 C133.12889986 51.80844823 129.15026375 51.81332882 125.171615 51.81812257 C115.78494019 51.82922266 106.3983054 51.8296525 97.0116272 51.8236084 C87.32770769 51.81756876 77.64393349 51.82987822 67.96003878 51.85117847 C59.64654794 51.86879216 51.33310336 51.87479615 43.01959455 51.87154073 C38.05403468 51.86972717 33.08857842 51.87237115 28.12303543 51.88625526 C23.45267259 51.89882499 18.78253623 51.89689759 14.1121769 51.88384438 C12.398932 51.88147709 10.68567121 51.88421874 8.97244453 51.8924675 C6.63169637 51.90292409 4.29170966 51.89484351 1.95098877 51.88215637 C-0.01293351 51.88240798 -0.01293351 51.88240798 -2.01653099 51.88266468 C-8.39293811 51.20435431 -12.42775203 48.30457026 -16.53915405 43.50793457 C-19.34235479 37.74903213 -18.9452939 31.9779178 -18.97665405 25.69543457 C-19.02596069 23.96970215 -19.02596069 23.96970215 -19.07626343 22.20910645 C-19.11557246 15.97326416 -18.73978531 11.41099249 -15.20346069 6.18493652 C-10.48743103 1.43293304 -6.64136675 0.00759448 0 0 Z " fill="#000001" transform="translate(291.5391540527344,42.4920654296875)"/>
<path d="M0 0 C118.14 0 236.28 0 358 0 C356.6997307 13.002693 356.6997307 13.002693 351 19 C344.4219166 24.00186533 338.73486973 26.11870115 330.49042892 26.13422108 C329.38875437 26.13867892 328.28707981 26.14313676 327.15202117 26.14772969 C325.94707574 26.14754533 324.74213031 26.14736097 323.50067139 26.14717102 C322.21643036 26.15084771 320.93218934 26.1545244 319.60903192 26.1583125 C316.04620686 26.16831134 312.48339865 26.17204586 308.92056155 26.17470181 C305.07721669 26.17861103 301.23388508 26.18818879 297.39054871 26.19691467 C288.11108971 26.21665936 278.83162965 26.22674176 269.5521549 26.23564246 C265.18101199 26.24002774 260.80987029 26.24539385 256.43872833 26.25063133 C241.90680569 26.26763994 227.37488379 26.28213464 212.84295273 26.28938007 C209.07352447 26.29128992 205.30409621 26.29321026 201.53466797 26.29516602 C200.59781262 26.29564976 199.66095727 26.2961335 198.69571236 26.2966319 C183.51543523 26.30493426 168.33523684 26.3302763 153.1549941 26.36274669 C137.5662697 26.39581882 121.97758532 26.41382888 106.38882565 26.41702431 C97.63765403 26.41918903 88.88659732 26.42793229 80.1354599 26.45348549 C72.68375572 26.4751944 65.23219439 26.4832419 57.78046218 26.47351871 C53.97980066 26.46897483 50.17943386 26.47086512 46.37881279 26.49028015 C42.25475574 26.51116522 38.13135193 26.50092423 34.00726318 26.48774719 C32.21322937 26.50420106 32.21322937 26.50420106 30.38295245 26.52098733 C20.88497634 26.44770192 13.56568884 24.21640176 6.50390625 17.6953125 C1.60362045 12.17135396 0.92520453 7.40163625 0 0 Z " fill="#5F7C8A" transform="translate(17,384)"/>
<path d="M0 0 C2.039781 -0.13618716 4.08224263 -0.23252628 6.125 -0.3125 C7.83042969 -0.39951172 7.83042969 -0.39951172 9.5703125 -0.48828125 C13.79055418 0.11255042 16.36805074 1.71357467 19 5 C19.60413668 7.90843498 19.80721975 9.99186915 19.74946022 12.89458466 C19.75758167 13.68732641 19.76570312 14.48006816 19.77407068 15.29683238 C19.79402845 17.9641842 19.77107641 20.62944702 19.7484436 23.29675293 C19.75392265 25.22379545 19.76202498 27.15083201 19.77253091 29.07785368 C19.79375464 34.38167237 19.77741525 39.68481942 19.75502992 44.98860908 C19.7373805 50.7051285 19.75422284 56.42155837 19.76675415 62.13807678 C19.78575458 73.34003728 19.77250925 84.54174058 19.74822827 95.74368203 C19.72101942 108.78085085 19.72426122 121.81795803 19.72849493 134.85514802 C19.73507124 158.81536529 19.70922878 182.77544781 19.66880485 206.73562639 C19.6320651 228.61496372 19.62044006 250.4941703 19.63134766 272.37353516 C19.63204052 273.7783698 19.63273272 275.18320445 19.63342424 276.5880391 C19.63376623 277.28255798 19.63410822 277.97707686 19.63446057 278.69264177 C19.63616762 282.1886568 19.6378152 285.68467186 19.63939857 289.18068695 C19.63971274 289.87037627 19.6400269 290.5600656 19.64035058 291.2706546 C19.64832813 309.54528352 19.6372922 327.81989757 19.62037599 346.09451914 C19.61796134 348.71344916 19.61554937 351.33237918 19.61314011 353.9513092 C19.61193303 355.2399702 19.61072595 356.5286312 19.6094823 357.85634252 C19.60171451 366.95012895 19.60251489 376.04389191 19.6063118 385.13768005 C19.61055042 396.21562436 19.60014781 407.2934428 19.57108469 418.3713516 C19.55656967 424.02660588 19.54846558 429.68167661 19.55757141 435.33694649 C19.5656979 440.50970324 19.55546934 445.68208029 19.53031926 450.8547793 C19.52444212 452.73020223 19.52536024 454.60566074 19.53360541 456.48107475 C19.54376967 459.02297927 19.52951342 461.56360104 19.50895119 464.10541534 C19.51774416 464.84008036 19.52653713 465.57474537 19.53559655 466.33167297 C19.46089728 471.15261727 18.42416443 473.61526319 15 477 C12.11584117 478.44207941 9.58278472 478.09394887 6.375 478.0625 C5.18648438 478.05347656 3.99796875 478.04445313 2.7734375 478.03515625 C1.85820312 478.02355469 0.94296875 478.01195312 0 478 C0.24447876 477.13713379 0.24447876 477.13713379 0.49389648 476.25683594 C0.99037528 474.04291893 1.11479744 472.15326203 1.09765625 469.890625 C1.09282227 468.75947266 1.09282227 468.75947266 1.08789062 467.60546875 C1.07951172 466.82816406 1.07113281 466.05085938 1.0625 465.25 C1.05798828 464.45722656 1.05347656 463.66445313 1.04882812 462.84765625 C1.03708565 460.89840492 1.01915146 458.94919262 1 457 C0.236875 457.64839844 -0.52625 458.29679687 -1.3125 458.96484375 C-4 461 -4 461 -7 461.5625 C-11.27200343 460.76149936 -12.4242377 459.52134946 -15 456 C-15.74850607 451.98911579 -15.69783709 448.06916541 -15.625 444 C-15.64433594 442.91976563 -15.66367187 441.83953125 -15.68359375 440.7265625 C-15.63516758 432.88152263 -15.63516758 432.88152263 -12.68359375 428.78515625 C-9.15506668 426.43794101 -7.1577789 426.31963618 -3 427 C-1.68 428.32 -0.36 429.64 1 431 C1 311.54 1 192.08 1 69 C0.01 69.495 0.01 69.495 -1 70 C-0.67475342 68.94441895 -0.34950684 67.88883789 -0.0144043 66.80126953 C1.43527096 60.96596903 1.26735682 55.1594844 1.23046875 49.1796875 C1.23001053 47.96225861 1.22955231 46.74482971 1.2290802 45.49050903 C1.22606974 42.92709371 1.21821975 40.36368002 1.20581055 37.80029297 C1.18752854 33.88111886 1.18530128 29.96218111 1.18554688 26.04296875 C1.18063192 23.54687296 1.1748037 21.05077877 1.16796875 18.5546875 C1.16685593 17.38582001 1.1657431 16.21695251 1.16459656 15.01266479 C1.15821671 13.9177774 1.15183685 12.82289001 1.14526367 11.69482422 C1.14145187 10.73744354 1.13764008 9.78006287 1.13371277 8.79367065 C0.99040724 5.79957779 0.5467865 2.94496189 0 0 Z " fill="#273492" transform="translate(476,17)"/>
<path d="M0 0 C1.09014329 -0.01041829 1.09014329 -0.01041829 2.20230967 -0.02104706 C4.63840458 -0.0393485 7.07352908 -0.02904462 9.50965881 -0.01878357 C11.25581594 -0.02584051 13.00196694 -0.03458457 14.74810791 -0.04489136 C19.4919571 -0.06742093 24.23547321 -0.06443726 28.97935557 -0.05556989 C32.938236 -0.05046486 36.89705357 -0.05774864 40.85592753 -0.06504196 C50.19466191 -0.08205243 59.53323295 -0.07846371 68.8719635 -0.06175232 C78.5094346 -0.04482944 88.14645282 -0.06066522 97.78387445 -0.0929752 C106.05576111 -0.11965754 114.32750668 -0.12695078 122.59943205 -0.11846012 C127.54098882 -0.11352697 132.48227305 -0.11576741 137.4237957 -0.13624763 C142.07050539 -0.15458347 146.71656289 -0.14867191 151.36323738 -0.12404823 C153.06883543 -0.11903364 154.77448299 -0.12254693 156.4800415 -0.13519669 C158.80849153 -0.15110037 161.13478682 -0.13620519 163.46313477 -0.11352539 C164.76596374 -0.11293908 166.06879271 -0.11235277 167.41110134 -0.1117487 C171.68180286 0.6788109 173.16621389 2.11816333 175.7950592 5.5146637 C176.3575592 9.0771637 176.3575592 9.0771637 175.7950592 12.5146637 C173.92797416 14.87963809 172.47444489 16.17497085 169.7950592 17.5146637 C167.50069205 17.61797618 165.20323456 17.65422366 162.90655518 17.66183472 C161.83122582 17.66734975 161.83122582 17.66734975 160.73417264 17.6729762 C158.31980932 17.6840339 155.90548901 17.68786038 153.49110413 17.69166565 C151.76495221 17.69792869 150.03880166 17.70457535 148.31265259 17.71157837 C143.61424273 17.72900206 138.91584306 17.7395437 134.2174089 17.7477839 C131.28359216 17.7529308 128.34977862 17.75900665 125.41596413 17.76529503 C116.24134143 17.78435031 107.0667268 17.79858113 97.89208812 17.806907 C87.29283897 17.81668385 76.69379841 17.84301365 66.09462279 17.88340789 C57.90773373 17.91354075 49.72090457 17.92837315 41.53396112 17.93168801 C36.64156717 17.9340416 31.74939597 17.94304208 26.85706139 17.96814919 C22.25482032 17.99138569 17.65294937 17.99568104 13.0506649 17.9853878 C11.36117829 17.98489126 9.67167374 17.99124643 7.98224258 18.00494385 C5.67588727 18.02259736 3.37086968 18.01559016 1.06451416 18.00241089 C-0.22616376 18.00479924 -1.51684168 18.0071876 -2.84663105 18.00964832 C-6.77641785 17.43043312 -8.43696732 16.31346635 -11.2049408 13.5146637 C-11.83384705 11.2959137 -11.83384705 11.2959137 -11.7674408 9.0146637 C-11.76872986 8.2618512 -11.77001892 7.5090387 -11.77134705 6.7334137 C-10.17979878 0.49893497 -5.7370433 0.01236393 0 0 Z " fill="#5F7C8A" transform="translate(114.20494079589844,477.48533630371094)"/>
<path d="M0 0 C28.05 0 56.1 0 85 0 C85 11.55 85 23.1 85 35 C56.95 35 28.9 35 0 35 C0 23.45 0 11.9 0 0 Z " fill="#5F7C8A" transform="translate(154,426)"/>
<path d="M0 0 C56.43 0 112.86 0 171 0 C171 5.61 171 11.22 171 17 C114.57 17 58.14 17 0 17 C0 11.39 0 5.78 0 0 Z " fill="#273491" transform="translate(290,60)"/>
<path d="M0 0 C2.5 1.5 2.5 1.5 4 4 C4.60800841 7.31640949 4.85042877 8.86572323 4 12 C2.68549633 13.87604713 2.68549633 13.87604713 0.9617157 15.75186157 C0.32481497 16.44798176 -0.31208576 17.14410194 -0.96828651 17.86131668 C-4.29250579 21.36055629 -7.66102192 24.80844458 -11.07495117 28.22021484 C-11.84983383 28.99845612 -12.62471649 29.77669739 -13.42308044 30.57852173 C-15.96042266 33.1252892 -18.50144948 35.66833891 -21.04296875 38.2109375 C-22.81707444 39.98825915 -24.59110588 41.76565492 -26.36506653 43.54312134 C-30.07094878 47.25497192 -33.77887254 50.96476936 -37.48803711 54.67333984 C-41.77173323 58.95643294 -46.04979325 63.24509964 -50.32530993 67.53635633 C-54.45199303 71.67768663 -58.58418855 75.81347966 -62.71850014 79.94719315 C-64.47242051 81.70229461 -66.22471715 83.45902025 -67.97536278 85.21738815 C-70.41661143 87.6684044 -72.86407821 90.11303918 -75.31323242 92.55615234 C-76.03591309 93.28445251 -76.75859375 94.01275269 -77.50317383 94.76312256 C-78.17168869 95.42744293 -78.84020355 96.09176331 -79.52897644 96.7762146 C-80.10614505 97.35392797 -80.68331366 97.93164135 -81.27797222 98.52686119 C-84.03041731 100.88148853 -86.37320162 101.89331091 -89.9375 102.5 C-93 102 -93 102 -95.875 99.375 C-98.22410055 95.6440756 -98.48270574 94.28911758 -98 90 C-96.61678314 87.85614967 -96.61678314 87.85614967 -94.63708496 85.86172485 C-93.89137238 85.096203 -93.14565979 84.33068115 -92.37734985 83.54196167 C-91.54835175 82.72196686 -90.71935364 81.90197205 -89.86523438 81.05712891 C-89.00026337 80.1784314 -88.13529236 79.29973389 -87.24411011 78.39440918 C-84.870567 75.99053661 -82.48423749 73.60101126 -80.08983421 71.21801805 C-78.09122356 69.2255908 -76.10186729 67.22405031 -74.11239672 65.22250307 C-69.4176523 60.49966787 -64.7074829 55.79262048 -59.98730469 51.09521484 C-55.12175663 46.25262357 -50.28230664 41.38503961 -45.4551177 36.50423491 C-41.30645944 32.31123587 -37.14242511 28.13395953 -32.96567392 23.96894395 C-30.47268737 21.48269366 -27.98582572 18.99102678 -25.51347351 16.48424149 C-22.75473916 13.68877355 -19.96421754 10.92644755 -17.16992188 8.16650391 C-16.35711761 7.33436371 -15.54431335 6.50222351 -14.70687866 5.64486694 C-9.73658436 0.80181561 -7.00379284 -1.18091921 0 0 Z " fill="#F1F4F4" transform="translate(132,154)"/>
<path d="M0 0 C6.72248092 4.16793817 13.07858006 8.96925237 15.125 16.9375 C16.19266263 26.44637033 15.4405846 33.24984095 9.6875 40.83203125 C4.66416174 46.56781412 -1.6261355 49.02013089 -9.04296875 50.31640625 C-16.08527126 50.7521575 -22.2900162 47.40860912 -27.6875 43.1875 C-32.32490064 38.95896531 -35.42037566 32.84077467 -36.1484375 26.58984375 C-36.45144933 18.49010434 -34.72834067 12.185136 -29.1953125 6.0859375 C-21.14717456 -1.1752714 -10.48733945 -3.89944954 0 0 Z " fill="#010102" transform="translate(453.875,121.0625)"/>
<path d="M0 0 C3.95221042 2.44790888 6.5960841 5.6350493 9.2578125 9.3984375 C9.8971875 10.2853125 10.5365625 11.1721875 11.1953125 12.0859375 C13.71580501 19.94394356 13.15549084 28.01902755 9.5234375 35.3984375 C5.09366093 42.39857826 -0.01935224 45.57141175 -7.7421875 48.3984375 C-14.6751306 49.73422844 -20.34243623 48.45831302 -26.44921875 45.01171875 C-32.67347946 40.63246888 -37.16207221 34.91091544 -38.7421875 27.3984375 C-40.12757214 19.05785652 -37.6080925 12.20496866 -32.7421875 5.3984375 C-23.19109704 -3.24937154 -11.94422316 -5.41522658 0 0 Z " fill="#010102" transform="translate(456.7421875,190.6015625)"/>
<path d="M0 0 C2.5 1.5 2.5 1.5 4 4 C4.77077249 7.43883111 4.99845258 8.75290174 4 12 C2.4375 14.12255859 2.4375 14.12255859 0.3125 16.3984375 C-0.50307373 17.27290527 -1.31864746 18.14737305 -2.15893555 19.04833984 C-7.04640944 24.14968073 -11.99905264 29.18503241 -16.99487305 34.18017578 C-18.83215679 36.01968055 -20.66124339 37.86709763 -22.49023438 39.71484375 C-23.66617833 40.89371649 -24.84259326 42.07211966 -26.01953125 43.25 C-26.56124466 43.79889893 -27.10295807 44.34779785 -27.66108704 44.91333008 C-32.6063269 49.8288078 -32.6063269 49.8288078 -36 51 C-40.20842764 50.92484951 -42.27350128 50.65198603 -45.4375 47.8125 C-47.3802852 44.31548664 -47.84945396 42.93837743 -47 39 C-42.85911134 33.449541 -37.7209503 28.5719893 -32.82421875 23.69140625 C-32.17298538 23.03921616 -31.52175201 22.38702606 -30.8507843 21.71507263 C-29.48988465 20.35349864 -28.1277462 18.99316176 -26.7644043 17.6340332 C-24.67183675 15.54687726 -22.58473176 13.45436368 -20.49804688 11.36132812 C-19.16959181 10.03353295 -17.84082707 8.70604753 -16.51171875 7.37890625 C-15.88778732 6.75295059 -15.2638559 6.12699493 -14.62101746 5.48207092 C-9.81190093 0.69918678 -6.88716993 -0.93915954 0 0 Z " fill="#EDF2F4" transform="translate(81,154)"/>
<path d="M0 0 C5.61 0 11.22 0 17 0 C16.77846617 7.86445112 15.51605169 13.19596168 10 19 C3.41186477 24.00950858 -2.27660501 26.12633137 -10.53471088 26.12304783 C-11.64193573 26.12503888 -12.74916058 26.12702993 -13.8899377 26.12908131 C-15.1010222 26.12616847 -16.31210671 26.12325563 -17.55989075 26.12025452 C-18.85048186 26.12110894 -20.14107298 26.12196337 -21.47077292 26.12284368 C-25.05098315 26.12507981 -28.63116346 26.1210794 -32.21136987 26.11606562 C-36.07294042 26.11174867 -39.93450926 26.11320843 -43.79608154 26.1139679 C-50.48584709 26.11449234 -57.17560289 26.11135383 -63.86536598 26.10573006 C-73.53764986 26.09760431 -83.20992902 26.09499873 -92.88221594 26.09374207 C-108.5747189 26.09155324 -124.26721666 26.08489773 -139.9597168 26.07543945 C-155.20385716 26.06626096 -170.44799611 26.05918226 -185.69213867 26.05493164 C-186.63172866 26.05466892 -187.57131865 26.05440619 -188.53938106 26.05413551 C-193.25301033 26.05283047 -197.9666396 26.05156677 -202.68026888 26.05032361 C-241.78684956 26.03995626 -280.89342444 26.02234254 -320 26 C-320 25.67 -320 25.34 -320 25 C-319.34632773 25.00092179 -318.69265546 25.00184359 -318.01917493 25.00279331 C-279.28935678 25.05639531 -240.55972578 25.06841818 -201.82988819 25.02634037 C-197.18102601 25.02132565 -192.53216353 25.01665883 -187.88330078 25.01220703 C-186.95778406 25.0113149 -186.03226735 25.01042277 -185.07870467 25.0095036 C-170.08682548 24.99588243 -155.09509921 25.01045323 -140.1032403 25.03541696 C-124.72366247 25.06039974 -109.34431003 25.05514611 -93.96474707 25.02174091 C-84.47225161 25.00207823 -74.98036905 25.00608579 -65.48791213 25.04023629 C-58.98123426 25.06138722 -52.47500806 25.05320548 -45.96837299 25.02184123 C-42.21237796 25.00460593 -38.45754629 25.00041532 -34.70161057 25.03101921 C-30.6302517 25.06385545 -26.56166592 25.03497544 -22.49032593 25 C-21.301609 25.01941178 -20.11289208 25.03882357 -18.88815343 25.05882359 C-12.97185614 25.05095556 -12.97185614 25.05095556 -7.96337819 22.29296875 C-2.58369718 15.34720535 -1.08001383 8.64011064 0 0 Z " fill="#374850" transform="translate(358,384)"/>
<path d="M0 0 C28.05 0 56.1 0 85 0 C85 11.55 85 23.1 85 35 C79.39 35 73.78 35 68 35 C68 23.78 68 12.56 68 1 C45.56 1 23.12 1 0 1 C0 0.67 0 0.34 0 0 Z " fill="#334249" transform="translate(154,426)"/>
<path d="M0 0 C3.01391851 2.66784356 4.69820494 4.39350142 5.44726562 8.38085938 C5.60050445 11.124856 5.58387051 13.81574078 5.5 16.5625 C5.50386719 17.96145508 5.50386719 17.96145508 5.5078125 19.38867188 C5.43721435 24.34113223 5.31569306 28.05088444 2 32 C-1.51824511 34.34549674 -2.85775694 34.57991403 -7 34 C-9.53481789 32.33745768 -10.56779769 31.57562723 -12 29 C-12.75043268 24.80252908 -12.69762503 20.69090609 -12.625 16.4375 C-12.64433594 15.30119141 -12.66367187 14.16488281 -12.68359375 12.99414062 C-12.63495179 4.74932863 -12.63495179 4.74932863 -9.6796875 1.26171875 C-6.073469 -0.43625293 -3.93767027 -0.70315541 0 0 Z " fill="#010104" transform="translate(439,444)"/>
<path d="M0 0 C4.08187671 0.57289498 5.68033728 1.61783728 8.5625 4.5 C10.42429243 8.22358487 9.83362982 12.65159392 9.875 16.75 C9.90400391 17.69230469 9.93300781 18.63460938 9.96289062 19.60546875 C10.01722737 25.56579184 9.55013714 28.97229326 5.5625 33.5 C2.67388291 34.94430855 0.76602299 34.87688506 -2.4375 34.5 C-4.9847153 32.83796069 -6.00931073 32.08769269 -7.4375 29.5 C-8.1625001 25.30162844 -8.0894943 21.18727003 -8 16.9375 C-8.01095703 15.80119141 -8.02191406 14.66488281 -8.03320312 13.49414062 C-7.95950587 5.16635025 -7.95950587 5.16635025 -5.61694336 2.17602539 C-3.4375 0.5 -3.4375 0.5 0 0 Z " fill="#010205" transform="translate(400.4375,443.5)"/>
<path d="M0 0 C2.36497439 1.86708505 3.66030715 3.32061431 5 6 C5.26640863 9.43142384 5.23156403 12.87188717 5.25 16.3125 C5.270625 17.26318359 5.29125 18.21386719 5.3125 19.19335938 C5.36209388 28.06446487 5.36209388 28.06446487 2 32 C-1.51824511 34.34549674 -2.85775694 34.57991403 -7 34 C-9.65625 32.22265625 -9.65625 32.22265625 -12 29 C-12.74764603 24.98889803 -12.69783871 21.06925596 -12.625 17 C-12.64433594 15.91976563 -12.66367187 14.83953125 -12.68359375 13.7265625 C-12.63516758 5.88152263 -12.63516758 5.88152263 -9.68359375 1.78515625 C-6.15506668 -0.56205899 -4.1577789 -0.68036382 0 0 Z " fill="#010103" transform="translate(473,444)"/>
<path d="M0 0 C4.58305451 0.90024285 5.7597333 1.88901901 8.5 5.6875 C9.22007387 9.72074831 9.15233007 13.66394554 9.0625 17.75 C9.07345703 18.83861328 9.08441406 19.92722656 9.09570312 21.04882812 C9.02199342 29.03404571 9.02199342 29.03404571 6.67944336 31.96655273 C3.60103834 34.39734438 1.39336946 34.6875 -2.5 34.6875 C-5.30189446 32.92108828 -7.01524911 31.65700178 -8.5 28.6875 C-8.82060398 25.1113452 -8.82438936 21.52625439 -8.875 17.9375 C-8.91238281 16.9475 -8.94976562 15.9575 -8.98828125 14.9375 C-9.08719414 6.71674013 -9.08719414 6.71674013 -6.1953125 3.02734375 C-3.5 0.6875 -3.5 0.6875 0 0 Z " fill="#010104" transform="translate(332.5,443.3125)"/>
<path d="M0 0 C4.30062099 0.76796803 5.66438796 1.26817091 8.5 4.625 C9.24176857 8.79813213 9.15085962 12.89806675 9.0625 17.125 C9.07345703 18.26582031 9.08441406 19.40664063 9.09570312 20.58203125 C9.02179299 28.96836792 9.02179299 28.96836792 6.67944336 31.91601562 C3.5742069 34.35094955 1.42299596 34.69382449 -2.5 34.625 C-5.178348 32.47067661 -6.96254419 30.69991161 -8.5 27.625 C-8.81927202 24.21565978 -8.82433113 20.79745187 -8.875 17.375 C-8.91238281 16.43269531 -8.94976562 15.49039062 -8.98828125 14.51953125 C-9.04529134 10.00306542 -9.05473075 6.64396161 -6.1953125 2.9921875 C-3.5 0.625 -3.5 0.625 0 0 Z " fill="#010204" transform="translate(366.5,443.375)"/>
<path d="M0 0 C12.73140172 -0.7752545 12.73140172 -0.7752545 17.375 2.0625 C19.41723737 5.75423679 19.68050965 7.84132993 19 12 C17.13291495 14.36497439 15.67938569 15.66030715 13 17 C10.7927077 17.07092842 8.58332548 17.08415025 6.375 17.0625 C5.18648438 17.05347656 3.99796875 17.04445313 2.7734375 17.03515625 C1.85820312 17.02355469 0.94296875 17.01195312 0 17 C0.16242188 16.2471875 0.32484375 15.494375 0.4921875 14.71875 C1.43983294 9.64520211 1.07990086 5.00525479 0 0 Z " fill="#36464E" transform="translate(271,478)"/>
<path d="M0 0 C4.43024874 0.87022743 5.91370196 2.00398461 8.5 5.6875 C9.12601538 9.65226406 9.15946039 11.68512021 6.9375 15.0625 C3.67160572 17.23976285 1.42016134 17.6875 -2.5 17.6875 C-6.28644566 15.71196313 -7.27321363 14.3678591 -8.625 10.3125 C-8.5 6.6875 -8.5 6.6875 -6.5 3.25 C-3.5 0.6875 -3.5 0.6875 0 0 Z " fill="#F7E338" transform="translate(443.5,204.3125)"/>
<path d="M0 0 C2.5 1.5625 2.5 1.5625 4 4 C4.59172793 8.06812955 4.37276489 10.27000208 2.5 13.9375 C-0.36052612 16.29743405 -2.32399572 16.73357225 -6.02734375 16.484375 C-9.51060972 15.62907801 -11.00028288 13.87459336 -13 11 C-13.625 8 -13.625 8 -13 5 C-9.2217441 -0.43124286 -6.19885712 -0.88555102 0 0 Z " fill="#F7E338" transform="translate(448,137)"/>
</svg>
